<svg preserveAspectRatio="none" viewBox="0 0 301 107" fill="none" xmlns="http://www.w3.org/2000/svg">
<path d="M1 34.4819C20.726 32.8412 34.6477 27.6226 43.7713 23.1047C52.9972 18.5358 59.6418 13.5238 71.7834 10.8292C85.1751 7.83518 93.9251 9.1765 97.3859 9.93099C102.184 10.9789 101.886 11.6915 109.735 14.1226C124.814 18.7933 127.678 16.7154 134.434 19.8112C145.636 24.943 142.296 32.7304 154.013 41.3681C162.498 47.6256 176.546 52.6047 189.254 49.1526C201.221 45.9011 202.567 37.7364 215.158 36.5777C220.329 36.1017 224.63 37.1586 233.23 39.2723C244.251 41.967 251.652 45.2903 254.616 46.458C263.396 49.9221 277.567 52.1017 300.7 45.2604" stroke="#439991" stroke-width="0.7" stroke-miterlimit="10"/>
<path d="M1 37.1226C20.0895 35.7065 34.3606 30.9819 44.3167 26.2993C52.4044 22.443 58.5727 18.2154 67.0733 15.1945C68.9326 14.5358 70.8912 13.8981 73.0006 13.3472C86.2924 9.88009 95.0129 10.4519 98.653 10.8022C103.535 11.2693 103.535 11.8022 111.231 14.1645C116.655 15.8262 120.518 16.7753 123.51 17.3981C128.597 18.4549 131.143 18.5268 135.157 20.5597C136.654 21.3121 138.06 22.2333 139.345 23.3053C145.29 28.2603 145.037 34.5418 154.9 41.2005C163.485 46.9969 177.446 51.3801 189.942 47.952C190.932 47.6798 191.908 47.358 192.865 46.9879C202.526 43.2484 204.695 36.6705 215.766 35.6376C216.933 35.5271 218.106 35.4941 219.277 35.5388C223.212 35.6765 227.28 36.6526 233.723 38.2334C244.396 40.8681 251.685 44.1286 254.955 45.419C257.349 46.3554 259.819 47.0905 262.337 47.6167C271.052 49.461 283.37 49.6526 300.7 44.946" stroke="#439991" stroke-width="0.7" stroke-miterlimit="10"/>
<path d="M1 39.9969C19.4498 38.7993 34.086 34.6077 44.8634 29.7035C53.422 25.8112 59.8794 21.3651 68.2271 18.1915C70.1323 17.4639 72.1069 16.7274 74.2262 16.0957C87.4184 12.1525 96.0976 11.6765 99.9323 11.904C104.873 12.2034 105.202 12.1466 112.733 14.437C118.005 16.0448 121.855 17.1316 124.791 17.8951C129.738 19.1735 132.117 19.431 135.873 21.5418C137.304 22.3547 138.65 23.3086 139.889 24.3891C145.635 29.3112 145.918 35.2154 155.797 41.2753C164.482 46.6077 178.356 50.3951 190.641 46.9909C191.681 46.6915 192.642 46.3921 193.544 46.0328C203.513 42.2244 205.72 35.952 216.389 34.955C217.547 34.8417 218.711 34.8047 219.874 34.8442C223.877 34.961 227.941 35.9101 234.23 37.4759C244.558 40.0388 251.73 43.2454 255.308 44.6286C257.685 45.5565 260.132 46.2934 262.628 46.8322C271.268 48.7185 283.535 49.1167 300.7 44.8771" stroke="#439991" stroke-width="0.7" stroke-miterlimit="10"/>
<path d="M1 43.0658C18.8098 42.0987 33.8027 38.4011 45.4115 33.3172C54.4295 29.3651 61.1855 24.7154 69.3741 21.3861C71.3285 20.5897 73.3221 19.7573 75.4455 19.0418C88.5382 14.6286 97.1611 13.7034 101.206 13.2005C106.209 12.5807 106.864 12.6855 114.232 14.904C119.359 16.452 123.196 17.6795 126.091 18.5837C130.896 20.0807 133.113 20.5298 136.611 22.7154C137.965 23.5902 139.242 24.5768 140.43 25.6645C145.976 30.5508 146.815 36.0747 156.686 41.5328C165.484 46.4011 179.258 49.5957 191.332 46.2125C192.363 45.9131 193.319 45.6137 194.215 45.2634C204.488 41.3711 206.741 35.416 217.001 34.425C218.152 34.309 219.308 34.268 220.464 34.3023C224.535 34.3951 228.607 35.3232 234.733 36.8592C244.71 39.3472 251.77 42.4969 255.655 43.9969C258.018 44.9107 260.447 45.6483 262.921 46.2035C271.486 48.1316 283.702 48.7394 300.7 44.964" stroke="#439991" stroke-width="0.7" stroke-miterlimit="10"/>
<path d="M1 46.1406C18.172 45.3981 33.5155 42.2005 45.9592 36.934C55.4399 32.919 62.4915 28.0627 70.5269 24.5837C72.5274 23.7184 74.537 22.7873 76.6703 21.9909C89.6632 17.1166 98.2115 15.4579 102.484 14.5058C107.532 13.3801 108.519 13.2334 115.737 15.3801C120.73 16.8771 124.535 18.2364 127.384 19.2723C132.046 20.9849 134.097 21.6316 137.341 23.8891C138.615 24.8238 139.825 25.842 140.962 26.937C146.312 31.7813 147.706 36.928 157.573 41.8023C166.483 46.2035 180.155 48.8083 192.019 45.449C193.039 45.1496 193.99 44.8502 194.883 44.5059C205.462 40.5328 207.755 34.925 217.61 33.922C218.753 33.8076 219.901 33.7626 221.05 33.7873C225.184 33.8592 229.245 34.7634 235.232 36.2693C244.863 38.6885 251.809 41.7843 256 43.3921C258.348 44.297 260.757 45.0364 263.209 45.6047C271.703 47.5777 283.866 48.3891 300.7 45.0837" stroke="#439991" stroke-width="0.7" stroke-miterlimit="10"/>
<path d="M1 48.1226C17.5338 47.6047 33.2314 44.9101 46.5079 39.461C56.4487 35.3801 63.7994 30.3083 71.6814 26.6915C73.7251 25.7544 75.7567 24.7364 77.897 23.8502C90.7841 18.5148 99.2669 16.1376 103.756 14.7154C108.851 13.1046 110.189 12.6825 117.235 14.7603C121.126 15.912 124.945 17.2896 128.673 18.8861C133.201 20.8112 135.081 21.6615 138.061 23.9759C139.362 24.9909 140.395 26.0717 141.511 27.1226C146.664 31.913 148.618 36.7035 158.471 40.9789C167.503 44.9101 181.066 46.928 192.719 43.5927C193.73 43.2933 194.675 42.9939 195.562 42.6556C206.451 38.6107 208.785 33.2993 218.233 32.3262C219.368 32.2114 220.508 32.1634 221.648 32.1825C225.85 32.2394 229.907 33.1107 235.733 34.5777C245.016 36.919 251.85 39.9669 256.345 41.6825C258.679 42.5778 261.07 43.318 263.503 43.8981C271.922 45.9161 284.03 46.937 300.7 44.0957" stroke="#439991" stroke-width="0.7" stroke-miterlimit="10"/>
<path d="M1 49.5358C16.8913 49.2364 32.9427 47.0418 47.0552 41.4161C57.4561 37.2693 65.0998 31.9759 72.834 28.2424C74.9239 27.2304 76.9714 26.1226 79.1217 25.1526C91.9175 19.3651 100.337 16.2723 105.039 14.3741C110.173 12.2933 111.859 11.5807 118.744 13.5867C122.602 14.7108 126.357 16.1592 129.967 17.916C134.349 20.0478 136.07 21.1076 138.791 23.5029C139.999 24.5597 140.95 25.6855 142.059 26.7484C147.018 31.5089 149.533 35.8861 159.366 39.5957C168.526 43.0508 181.977 44.4879 193.417 41.1735C194.417 40.8741 195.353 40.5747 196.241 40.2424C207.439 36.1346 209.822 31.1286 218.852 30.1915C219.978 30.0737 221.111 30.0217 222.243 30.0358C226.507 30.0717 230.566 30.916 236.235 32.3651C245.168 34.6376 251.888 37.6286 256.692 39.458C259.011 40.3419 261.382 41.0828 263.792 41.6765C272.14 43.7394 284.196 44.9699 300.7 42.5897" stroke="#439991" stroke-width="0.7" stroke-miterlimit="10"/>
<path d="M1 50.97C16.2495 50.9011 32.6503 49.1945 47.6067 43.3921C58.466 39.1765 66.4005 33.6556 73.9875 29.7873C76.1237 28.6945 78.1934 27.4969 80.3508 26.449C93.0501 20.2154 101.414 16.419 106.321 14.0238C111.527 11.4849 113.53 10.4729 120.253 12.407C124.085 13.5194 127.779 15.054 131.266 16.9819C135.496 19.3142 137.061 20.5957 139.527 23.0508C140.633 24.1526 141.509 25.3142 142.606 26.3981C147.374 31.1077 150.462 35.0957 160.27 38.2334C169.561 41.2065 182.892 42.0658 194.11 38.7783C195.101 38.4789 196.032 38.1795 196.914 37.8502C208.423 33.6586 210.834 28.9669 219.47 28.0358C220.588 27.9179 221.712 27.8619 222.836 27.8681C227.169 27.8681 231.224 28.7005 236.735 30.1256C245.322 32.3202 251.924 35.2634 257.039 37.1975C259.343 38.0739 261.695 38.8177 264.085 39.425C272.358 41.5208 284.363 42.961 300.7 41.0538" stroke="#439991" stroke-width="0.7" stroke-miterlimit="10"/>
<path d="M1 52.4101C15.6087 52.5658 32.3604 51.3532 48.154 45.3741C59.474 41.0897 67.6987 35.3382 75.1406 31.3532C77.317 30.1885 79.4117 28.9101 81.5729 27.7604C94.1775 21.0807 102.49 16.5807 107.598 13.6885C112.87 10.6945 115.194 9.3771 121.757 11.2394C125.561 12.3389 129.195 13.9508 132.557 16.0298C136.658 18.5657 138.04 20.0687 140.249 22.5837C141.256 23.7334 142.063 24.925 143.145 26.0298C147.722 30.6915 151.376 34.2813 161.157 36.8562C170.585 39.3382 183.791 39.6316 194.806 36.3652C195.788 36.0658 196.713 35.7664 197.59 35.446C209.412 31.1915 211.857 26.7993 220.088 25.8861C221.198 25.7679 222.314 25.708 223.431 25.7065C227.829 25.6795 231.894 26.4939 237.242 27.8891C245.475 30.0119 251.965 32.9041 257.388 34.946C259.675 35.8164 262.008 36.565 264.376 37.1885C272.577 39.3382 284.529 40.9759 300.7 39.5358" stroke="#439991" stroke-width="0.7" stroke-miterlimit="10"/>
<path d="M1 53.8442C14.967 54.2155 32.0758 53.4939 48.7068 47.3412C60.4997 42.9849 68.9967 36.9999 76.2992 32.9041C78.5187 31.6586 80.6354 30.2993 82.8034 29.0657C95.31 21.949 103.574 16.7484 108.881 13.3442C114.23 9.91003 116.867 8.2753 123.265 10.0657C127.045 11.1615 130.619 12.8582 133.849 15.0897C137.81 17.8202 139.019 19.5567 140.973 22.1286C141.88 23.3262 142.609 24.5448 143.694 25.6735C148.085 30.2843 152.312 33.458 162.061 35.4879C171.625 37.4729 184.703 37.2065 195.507 33.9639C196.478 33.6645 197.397 33.3651 198.271 33.0657C210.403 28.7454 212.885 24.6526 220.705 23.7633C221.809 23.6389 222.92 23.5749 224.031 23.5717C228.494 23.5418 232.546 24.3112 237.75 25.6675C245.633 27.7184 252.007 30.5598 257.741 32.7095C259.812 33.4879 262.107 34.2574 264.674 34.946C272.799 37.1376 284.698 38.9849 300.7 38.0089" stroke="#439991" stroke-width="0.7" stroke-miterlimit="10"/>
<path d="M1 55.2364C14.3118 55.8352 31.7775 55.6077 49.2553 49.2843C61.4961 44.8562 70.2909 38.6316 77.4581 34.428C79.7181 33.1017 81.8601 31.6645 84.0354 30.3412C96.4577 22.7873 104.681 16.8891 110.166 12.9759C115.593 9.08369 118.54 7.14955 124.779 8.86812C128.538 9.96105 132.057 11.7401 135.156 14.1136C138.983 17.0418 139.996 19.0148 141.712 21.6376C142.52 22.8831 143.176 24.1316 144.238 25.2813C148.443 29.8352 153.242 32.6107 162.956 34.0837C172.671 35.5568 185.613 34.7424 196.205 31.5238C197.168 31.2244 198.081 30.925 198.949 30.6256C211.396 26.2394 213.916 22.446 221.338 21.5777C222.431 21.4512 223.531 21.3843 224.632 21.3771C229.17 21.3202 233.212 22.0687 238.246 23.4071C245.783 25.3831 252.039 28.1765 258.084 30.431C260.147 31.2035 262.426 31.9699 264.964 32.6735C273.015 34.9071 284.862 36.961 300.7 36.455" stroke="#439991" stroke-width="0.7" stroke-miterlimit="10"/>
<path d="M1 56.6107C13.68 57.44 31.4846 57.6945 49.8098 51.2035C62.5231 46.7125 71.5858 40.2334 78.6175 35.934C80.921 34.5238 83.0883 33.0118 85.2768 31.5987C97.6087 23.6047 105.794 17.0178 111.454 12.5777C116.972 8.26033 120.232 5.99086 126.286 7.64056C130.306 8.73637 133.957 11.0028 136.454 13.1076C140.15 16.2274 140.994 18.443 142.444 21.1166C143.146 22.41 143.734 23.6885 144.781 24.8621C148.804 29.3532 154.165 31.7154 163.851 32.6466C173.698 33.6017 186.523 32.2484 196.902 29.0538C197.853 28.7544 198.761 28.455 199.627 28.1556C212.385 23.7005 214.94 20.2064 221.947 19.3621C223.034 19.2338 224.126 19.1628 225.22 19.1496C229.818 19.0627 233.862 19.7933 238.756 21.1047C245.942 23.0088 252.075 25.7514 258.431 28.1136C260.487 28.8771 262.748 29.6466 265.254 30.3591C273.233 32.6376 285.029 34.8981 300.7 34.8502" stroke="#439991" stroke-width="0.7" stroke-miterlimit="10"/>
<path d="M1 57.967C13.0364 59.0239 31.1774 59.7275 50.357 53.1017C63.5078 48.5029 72.8705 41.8143 79.7714 37.4101C82.112 35.9131 84.3134 34.3292 86.4966 32.8262C98.7481 24.4101 106.897 17.1106 112.732 12.1675C118.343 7.41303 121.882 4.8262 127.799 6.40105C131.678 7.44297 135.312 9.8292 137.752 12.0897C141.316 15.4011 141.958 17.8562 143.172 20.5837C143.778 21.925 144.29 23.2274 145.325 24.425C149.165 28.8681 155.097 30.7963 164.75 31.2125C174.743 31.6406 187.433 29.7574 197.598 26.5837C198.541 26.2863 199.442 25.9869 200.302 25.6855C213.377 21.1705 215.966 17.9699 222.565 17.1496C223.642 17.0178 224.725 16.9428 225.811 16.925C230.474 16.8142 234.519 17.5238 239.258 18.8053C246.089 20.6346 252.112 23.3412 258.783 25.7993C260.83 26.5598 263.071 27.3232 265.551 28.0478C273.454 30.3711 285.196 32.8382 300.7 33.2634" stroke="#439991" stroke-width="0.7" stroke-miterlimit="10"/>
<path d="M1 59.3023C12.3905 60.5807 30.8879 61.7783 50.9091 54.9789C64.5232 50.3113 74.1657 43.3652 80.9333 38.8741C83.3114 37.2963 85.538 35.6346 87.7313 34.0418C99.9003 25.1975 108.028 17.1975 114.017 11.7334C119.728 6.53877 123.56 3.6226 129.3 5.12859C133.042 6.11362 136.662 8.6226 139.04 11.0448C142.478 14.5478 142.918 17.2484 143.887 20.0268C144.378 21.419 144.835 22.7484 145.853 23.9669C149.534 28.3502 156.035 30.1466 165.653 29.7424C175.765 29.3172 188.349 27.2304 198.304 24.0807C199.237 23.7833 200.132 23.4839 200.988 23.1825C214.384 18.6256 217.001 15.6975 223.19 14.9011C224.26 14.7682 225.336 14.6902 226.413 14.6675C231.142 14.5358 235.199 15.2184 239.767 16.4639C246.235 18.2364 252.154 20.91 259.134 23.4579C261.173 24.2124 263.396 24.9759 265.844 25.7124C273.675 28.0807 285.365 30.7544 300.7 31.6466" stroke="#439991" stroke-width="0.7" stroke-miterlimit="10"/>
<path d="M1 60.6227C11.7465 62.1197 30.5969 63.8173 51.4597 56.8412C65.5368 52.1047 75.4409 44.9041 82.09 40.3113C84.5145 38.6466 86.7663 36.916 88.9604 35.2214C101.053 25.94 109.138 17.2573 115.302 11.2693C121.124 5.64057 125.255 2.41302 130.837 3.84416C134.438 4.7723 138.044 7.40105 140.363 9.98488C143.675 13.6735 143.902 16.6196 144.645 19.446C145.027 20.8891 145.424 22.2424 146.427 23.4879C149.912 27.8112 156.955 28.8771 166.559 28.2544C176.809 27.5987 189.265 24.6855 199.005 21.5597C199.914 21.2603 200.823 20.9609 201.669 20.6615C215.376 16.0358 218.034 13.404 223.813 12.6346C224.874 12.4981 225.941 12.4162 227.011 12.3891C231.805 12.2334 235.848 12.8951 240.273 14.1166C246.404 15.8023 252.195 18.41 259.484 21.0807C261.517 21.8292 263.727 22.5777 266.151 23.3412C273.906 25.7364 285.547 28.6316 300.7 29.9909" stroke="#439991" stroke-width="0.7" stroke-miterlimit="10"/>
<path d="M1 61.928C11.1003 63.6556 30.3032 65.8412 52.0168 58.6915C66.5714 53.8861 76.7293 46.4161 83.2485 41.7424C85.6986 39.9879 87.997 38.1915 90.1923 36.413C102.227 26.7364 110.265 17.3112 116.572 10.8082C122.491 4.72739 126.897 1.18846 132.34 2.55373C135.8 3.42499 139.399 6.1735 141.655 8.91602C144.845 12.8082 144.854 15.9819 145.369 18.8621C145.633 20.3591 145.976 21.7334 146.961 23.0029C150.272 27.2663 157.877 27.8771 167.45 26.7603C177.829 25.5627 190.173 22.1346 199.697 19.0298C200.607 18.7304 201.495 18.431 202.341 18.1555C216.365 13.4609 219.055 11.1166 224.428 10.3711C225.488 10.2366 226.555 10.1566 227.624 10.1316C232.072 9.96617 236.518 10.5225 240.784 11.7783C246.563 13.3921 252.239 15.949 259.841 18.7274C261.867 19.4669 264.056 20.2244 266.442 20.9909C277.598 24.5159 289.07 26.9831 300.7 28.3591" stroke="#439991" stroke-width="0.7" stroke-miterlimit="10"/>
<path d="M1 63.2245C10.4551 65.1766 30.0114 67.8562 52.5678 60.5298C67.5741 55.6556 78.0059 47.934 84.4185 43.1646C112.881 21.9759 121.89 -1.68878 133.863 1.24835C137.182 2.06272 140.773 4.93098 142.963 7.83518C147.641 14.0328 144.692 18.7334 147.513 22.5059C154.429 31.7574 185.54 21.425 203.025 15.6196C220.072 9.95794 220.703 8.13458 228.202 7.83518C241.291 7.30524 248.095 12.4939 266.726 18.6136C277.804 22.2348 289.168 24.9388 300.7 26.6975" stroke="#439991" stroke-width="0.7" stroke-miterlimit="10"/>
<path d="M1 64.0808C10.6987 66.2155 29.6325 68.6616 51.1788 61.6496C66.0512 56.7963 76.0318 48.9999 82.9088 43.9849C110.381 23.9759 118.949 2.30524 131.136 4.23937C135.897 4.99386 140.731 6.50584 143.923 8.82321C150.194 13.3801 147.863 17.455 151.5 21.0987C159.462 29.0807 188.455 20.1196 205.089 14.7933C221.292 9.58668 221.946 8.11363 229.866 8.41303C243.026 8.91003 249.515 13.5029 267.051 19.3771C277.993 23.0401 289.258 25.6775 300.7 27.2544" stroke="#439991" stroke-width="0.7" stroke-miterlimit="10"/>
<path d="M1 64.973C17.1616 68.6511 34.032 67.9006 49.7941 62.8023C64.5335 57.973 74.0459 50.0957 81.405 44.8382C107.852 25.958 116.132 5.95793 128.421 7.26332C134.657 7.92799 140.52 8.09566 144.887 9.84716C152.379 12.8412 150.92 16.1645 155.487 19.7274C164.211 26.5268 191.374 18.8472 207.161 13.9999C222.494 9.24835 223.175 8.09566 231.54 9.0238C244.738 10.4849 250.943 14.5747 267.387 20.1765C278.189 23.8788 289.355 26.4498 300.7 27.8472" stroke="#439991" stroke-width="0.7" stroke-miterlimit="10"/>
<path d="M1 66.5598C16.678 70.282 33.093 69.6207 48.4133 64.6496C63.0164 59.8412 72.0639 51.8831 79.9011 46.3861C105.27 28.5957 113.404 12.3801 125.705 10.9819C133.399 10.1076 140.205 10.4669 145.848 11.5627C154.375 13.2154 153.879 15.5717 159.465 19.0478C168.712 24.8023 194.287 18.2993 209.22 13.9011C223.708 9.63458 224.383 8.74536 233.201 10.3262C246.43 12.6975 252.358 16.3352 267.717 21.6675C278.382 25.4136 289.45 27.9194 300.7 29.1346" stroke="#439991" stroke-width="0.7" stroke-miterlimit="10"/>
<path d="M1 68.976C16.1942 72.7403 32.1544 72.1652 47.0321 67.3173C61.5024 62.5268 70.0829 54.4879 78.4005 48.7544C102.676 32.0208 110.718 17.3532 122.996 15.5208C132.118 14.1615 140.173 12.0837 146.806 14.0987C155.934 16.8711 156.276 17.0627 163.435 19.1885C172.049 25.6586 197.195 18.5627 211.281 14.6226C224.917 10.8202 225.588 10.1915 234.864 12.452C248.116 15.6825 253.77 18.928 268.047 23.9789C278.574 27.7674 289.548 30.2074 300.7 31.2394" stroke="#439991" stroke-width="0.7" stroke-miterlimit="10"/>
<path d="M1 71.449C15.711 75.2579 31.2187 74.7776 45.661 70.0658C59.9992 65.2993 68.1109 57.1706 76.9114 51.2035C100.071 35.4969 108.017 22.2424 120.282 20.1406C130.856 18.3322 139.654 15.4639 147.775 16.7184C158.246 18.3352 159.173 17.7005 167.412 19.413C176.442 25.1705 200.103 18.8831 213.333 15.425C226.118 12.0867 226.789 11.6885 236.52 14.6585C249.812 18.7065 255.175 21.6077 268.374 26.3711C278.766 30.2025 289.646 32.5767 300.7 33.425" stroke="#439991" stroke-width="0.7" stroke-miterlimit="10"/>
<path d="M1 73.97C15.2247 77.8158 30.2758 77.4253 44.2783 72.8472C58.484 68.1017 66.1212 59.8831 75.4096 53.6855C97.4457 38.9819 105.294 27.0687 117.595 24.7933C129.588 22.5747 139.287 20.7544 148.723 19.3681C160.375 17.6555 162.048 18.3651 171.363 19.6675C180.824 24.7304 202.999 19.2484 215.399 16.2603C227.335 13.3861 228.005 13.2005 238.19 16.8981C251.496 21.7304 256.589 24.3322 268.702 28.7993C278.958 32.6719 289.747 34.9806 300.7 35.6466" stroke="#439991" stroke-width="0.7" stroke-miterlimit="10"/>
<path d="M1 76.5239C12.2287 79.7484 27.3903 80.8353 42.9047 75.6646C56.9866 70.97 64.1376 62.6257 73.9126 56.2035C94.8046 42.4789 102.565 31.8621 114.891 29.4819C128.331 26.8891 139.02 24.3532 149.672 22.0538C162.43 19.2963 165.205 17.3711 175.309 19.9579C185.777 22.6376 205.879 19.6585 217.436 17.1316C228.523 14.7184 229.199 14.7364 239.83 19.1705C253.191 24.7603 257.975 27.0987 269.032 31.2604C275.905 33.8472 286.274 37.2304 300.7 37.9011" stroke="#439991" stroke-width="0.7" stroke-miterlimit="10"/>
<path d="M1 79.1227C12.4817 82.5239 27.0162 83.3832 41.5326 78.5239C55.4824 73.8532 62.1545 65.4011 72.4217 58.7634C92.1576 45.9999 99.8 36.6496 112.201 34.2124C127.088 31.2843 138.787 28.0118 150.624 24.7813C164.52 20.9879 167.988 18.1017 179.253 20.2903C189.99 22.3861 208.762 20.0867 219.484 18.0448C229.73 16.0927 230.429 16.2723 241.483 21.4879C254.9 27.8142 259.366 29.919 269.359 33.7633C276.127 36.3681 286.334 39.7514 300.7 40.2005" stroke="#439991" stroke-width="0.7" stroke-miterlimit="10"/>
<path d="M1 81.7514C12.7434 85.3442 26.6427 85.961 40.1627 81.4161C53.9807 76.7694 60.1686 68.2065 70.9333 61.3562C89.5059 49.5358 97.0397 41.44 109.512 38.9759C125.859 35.7454 138.569 31.7125 151.574 27.5418C166.63 22.7154 170.77 18.934 183.191 20.6556C194.212 22.1825 211.64 20.5627 221.526 18.9909C230.914 17.4939 231.658 17.8382 243.13 23.8382C256.62 30.8891 260.751 32.7813 269.685 36.2993C276.352 38.925 286.391 42.3202 300.7 42.5298" stroke="#439991" stroke-width="0.7" stroke-miterlimit="10"/>
<path d="M1 84.4191C12.9835 88.1826 26.2729 88.5748 38.795 84.3442C52.4814 79.7185 58.1798 71.0358 69.4473 63.9849C86.8465 53.0927 94.0673 44.7903 106.83 43.7753C124.924 42.3352 138.361 35.452 152.523 30.3382C168.749 24.4819 174.185 16.8651 187.123 21.0567C197.93 24.5687 214.502 21.0567 223.567 19.9729C232.105 18.94 232.894 19.428 244.778 26.2214C258.35 33.9849 262.129 35.6915 270.012 38.8711C276.573 41.5208 286.451 44.919 300.7 44.8981" stroke="#439991" stroke-width="0.7" stroke-miterlimit="10"/>
<path d="M1 87.1736C13.2352 91.1197 25.9003 91.2694 37.4321 87.3772C50.9841 82.7724 56.1878 73.958 67.9631 66.7185C84.1966 56.7394 91.3122 49.9011 104.149 48.6795C123.689 46.8143 138.164 39.2993 153.471 33.2394C170.877 26.3532 176.73 18.2364 191.049 21.5627C202.406 24.2035 217.377 21.6765 225.599 21.0597C233.292 20.4819 234.149 21.1106 246.417 28.7124C260.086 37.1795 263.501 38.7154 270.337 41.5478C276.792 44.2244 286.508 47.6196 300.7 47.3682" stroke="#439991" stroke-width="0.7" stroke-miterlimit="10"/>
<path d="M1 90.1017C13.4836 94.2305 25.5257 94.1496 36.0689 90.5508C49.4897 85.967 54.1906 77.0089 66.4819 69.5927C81.5188 60.5179 88.5596 55.1526 101.476 53.7244C122.466 51.4041 137.974 43.2903 154.417 36.2843C173.016 28.3591 179.348 19.913 194.968 22.2124C206.845 23.9609 220.235 22.422 227.634 22.2873C234.476 22.1615 235.41 22.928 248.059 31.3442C261.831 40.5089 264.88 41.8921 270.662 44.3681C277.009 47.0807 286.582 50.464 300.7 49.9819" stroke="#439991" stroke-width="0.7" stroke-miterlimit="10"/>
<path d="M1 93.0808C13.7346 97.3922 25.1546 97.0748 34.7078 93.7934C47.9977 89.2275 52.1875 80.1077 65.0032 72.5358C78.8543 64.3502 85.8023 60.467 98.8041 58.8382C121.23 56.0298 137.791 47.3472 155.361 39.3951C175.17 30.434 182.031 21.7813 198.88 22.928C211.246 23.7693 223.092 23.2274 229.662 23.5837C235.652 23.9041 236.679 24.8023 249.696 34.0448C263.589 43.9041 266.227 45.1616 270.987 47.2574C277.221 50.0149 286.624 53.3801 300.7 52.6646" stroke="#439991" stroke-width="0.7" stroke-miterlimit="10"/>
<path d="M1 96.3233C13.9857 100.814 24.7761 100.245 33.3503 97.2964C46.501 92.7215 50.1748 83.443 63.5293 75.7394C76.1912 68.434 83.0499 66.0388 96.1436 64.2125C119.992 60.8861 137.62 51.6676 156.298 42.7664C177.291 32.7693 184.845 25.2693 202.782 23.9041C215.564 22.934 225.938 24.2933 231.687 25.1406C236.836 25.9011 237.955 26.937 251.33 37.0029C265.348 47.5598 267.579 48.6795 271.31 50.4011C277.422 53.2244 286.683 56.5508 300.7 55.6047" stroke="#439991" stroke-width="0.7" stroke-miterlimit="10"/>
<path d="M1 99.5329C14.2322 104.207 24.4051 103.404 31.9951 100.769C45.0116 96.2155 48.1428 86.7155 62.0523 78.9131C73.5226 72.479 80.2886 71.5778 93.4758 69.5568C118.739 65.6855 137.439 55.955 157.246 46.1107C179.446 35.0717 187.705 26.949 206.687 24.8532C219.871 23.4041 228.792 25.3112 233.709 26.6675C238.021 27.8651 239.24 29.0328 252.961 39.934C267.116 51.1795 268.92 52.1885 271.635 53.5209C277.604 56.449 286.74 59.6915 300.7 58.5149" stroke="#439991" stroke-width="0.7" stroke-miterlimit="10"/>
<path d="M1 102.745C14.4731 107.599 24.0539 106.566 30.6407 104.242C43.515 99.7095 46.0958 89.94 60.5808 82.0867C70.8623 76.5119 77.5329 77.1167 90.8204 74.9011C117.482 70.455 137.269 60.2304 158.186 49.452C181.593 37.3741 190.578 28.6166 210.581 25.7993C224.219 23.8801 231.65 26.3142 235.731 28.1945C239.213 29.7993 240.521 31.1256 254.593 42.8652C268.889 54.8023 270.251 55.7095 271.958 56.6376C277.728 59.7783 286.796 62.8352 300.701 61.428" stroke="#439991" stroke-width="0.7" stroke-miterlimit="10"/>
</svg>
