<svg width="30" height="32" viewBox="0 0 30 32" fill="none" xmlns="http://www.w3.org/2000/svg">
<path d="M12.99 14.1698C16.7511 14.1698 19.8 11.1209 19.8 7.3598C19.8 3.59875 16.7511 0.549805 12.99 0.549805C9.22894 0.549805 6.18 3.59875 6.18 7.3598C6.18 11.1209 9.22894 14.1698 12.99 14.1698Z" fill="#7F7F7F"/>
<path d="M7 23.6501C7.02078 23.0968 7.20514 22.5621 7.52976 22.1135C7.85438 21.665 8.3047 21.3228 8.82378 21.1301C9.34287 20.9375 9.90742 20.9031 10.4461 21.0312C10.9847 21.1593 11.4733 21.4443 11.85 21.8501L15.71 26.0001L22.55 18.3701C19.7245 16.4872 16.3951 15.504 13 15.5501C10.6449 15.4905 8.30529 15.9476 6.14575 16.8892C3.9862 17.8307 2.05912 19.2339 0.499999 21.0001C0.368105 21.1759 0.297815 21.3903 0.299999 21.6101V27.0001C0.299765 27.5203 0.502223 28.0201 0.864415 28.3935C1.22661 28.7669 1.72003 28.9845 2.24 29.0001H10.81L7.74 25.7001C7.48635 25.4249 7.29023 25.1018 7.16315 24.7497C7.03608 24.3977 6.98061 24.0238 7 23.6501Z" fill="#7F7F7F"/>
<path d="M23.76 29.0002C24.28 28.9846 24.7734 28.767 25.1356 28.3937C25.4978 28.0203 25.7002 27.5204 25.7 27.0002V23.2402L20.57 29.0002H23.76Z" fill="#7F7F7F"/>
<path d="M28.77 15.6199C28.6719 15.5312 28.5571 15.4628 28.4323 15.4188C28.3076 15.3748 28.1754 15.356 28.0433 15.3634C27.9112 15.3708 27.7819 15.4044 27.6629 15.4622C27.5439 15.5199 27.4376 15.6007 27.35 15.6999L15.73 28.6999L10.53 23.1099C10.4446 23.0101 10.3405 22.928 10.2234 22.8685C10.1064 22.8089 9.97872 22.773 9.84778 22.7628C9.71685 22.7526 9.58519 22.7683 9.46032 22.809C9.33544 22.8496 9.2198 22.9145 9.12 22.9999C9.02627 23.0928 8.95188 23.2034 8.90111 23.3253C8.85034 23.4471 8.8242 23.5779 8.8242 23.7099C8.8242 23.8419 8.85034 23.9726 8.90111 24.0944C8.95188 24.2163 9.02627 24.3269 9.12 24.4199L15.8 31.6199L28.84 16.9999C29.0082 16.805 29.0947 16.5529 29.0817 16.2958C29.0686 16.0388 28.957 15.7967 28.77 15.6199Z" fill="#7F7F7F"/>
</svg>
