<svg width="334" height="66" viewBox="0 0 334 66" fill="none" xmlns="http://www.w3.org/2000/svg">
<path d="M265.605 53.5683C265.605 60.0867 260.321 65.371 253.803 65.371C247.284 65.371 242 60.0867 242 53.5683C242 47.0499 247.145 43.0074 253.803 41.7657C260.461 40.5239 265.605 47.0499 265.605 53.5683Z" fill="#FEFEFE"/>
<circle cx="259.855" cy="53.4465" r="11.8027" fill="url(#paint0_linear_264_3)"/>
<path d="M303.737 45.5781C303.737 52.0965 298.453 57.3807 291.934 57.3807C285.416 57.3807 280.132 52.0965 280.132 45.5781C280.132 39.0596 285.277 35.0171 291.934 33.7754C298.592 32.5337 303.737 39.0596 303.737 45.5781Z" fill="#FEFEFE"/>
<path d="M259.554 27.1179C279.224 20.4595 287.395 42.5519 291.632 46.4861C295.869 50.4203 300.106 40.4335 310.395 38.6177C320.685 36.8019 334.001 65.5521 334.001 65.5521H319.172H258.04C258.04 65.5521 250.294 51.9951 250.402 40.7359C250.46 34.7576 252.732 29.4272 259.554 27.1179Z" fill="url(#paint1_linear_264_3)"/>
<g opacity="0.46">
<ellipse cx="10.8727" cy="10.8727" rx="10.8727" ry="10.8727" transform="matrix(-1 0 0 1 79.1782 14.5244)" fill="white"/>
<ellipse cx="10.8727" cy="10.8727" rx="10.8727" ry="10.8727" transform="matrix(-1 0 0 1 49.6289 7.27686)" fill="white"/>
<path d="M68.5806 1.14431C50.4603 -4.98942 42.9328 15.3622 39.0298 18.9864C35.1268 22.6106 31.2238 13.4107 21.745 11.7379C12.2663 10.0652 -0.000239386 36.55 -0.000239386 36.55H13.6603H69.975C69.975 36.55 77.1111 24.0612 77.0112 13.6892C76.9582 8.18203 74.8651 3.2716 68.5806 1.14431Z" fill="#FEFEFE"/>
</g>
<defs>
<linearGradient id="paint0_linear_264_3" x1="259.855" y1="41.6438" x2="259.855" y2="65.2491" gradientUnits="userSpaceOnUse">
<stop stop-color="#EDEAEA"/>
<stop offset="1" stop-color="white" stop-opacity="0"/>
</linearGradient>
<linearGradient id="paint1_linear_264_3" x1="292.201" y1="25.8757" x2="292.201" y2="65.5521" gradientUnits="userSpaceOnUse">
<stop stop-color="#FEFEFE"/>
<stop offset="1" stop-color="#F1F1F1" stop-opacity="0.83"/>
</linearGradient>
</defs>
</svg>
