<svg width="11" height="10" viewBox="0 0 11 10" fill="none" xmlns="http://www.w3.org/2000/svg">
<path d="M8 1.00009C8 0.734869 8.10536 0.480515 8.29289 0.292979C8.48043 0.105442 8.73478 8.5637e-05 9 8.5637e-05L11 0C11 0 11 0.734784 11 1V9.5C10.5 9.5 9.66302 9.5 8.99998 9.5L3 9.50009C2.73478 9.50009 1 9.50009 1 9.50009H0V8.00009C0 7.73487 0.105357 7.48052 0.292893 7.29298C0.48043 7.10544 0.734784 7.00009 1 7.00009H4V5.00009C4 4.73487 4.10536 4.48052 4.29289 4.29298C4.48043 4.10544 4.73478 4.00009 5 4.00009H8V1.00009Z" fill="#7F7F7F"/>
<path d="M5.4571 1.0307C5.45805 0.892627 5.34689 0.77993 5.20883 0.778979L2.95888 0.763476C2.82081 0.762525 2.70812 0.87368 2.70716 1.01175C2.70621 1.14982 2.81737 1.26251 2.95544 1.26346L4.95539 1.27724L4.94161 3.2772C4.94066 3.41526 5.05181 3.52796 5.18988 3.52891C5.32795 3.52986 5.44064 3.41871 5.4416 3.28064L5.4571 1.0307ZM1.1756 5.35644L5.38266 1.20696L5.03155 0.850982L0.824493 5.00046L1.1756 5.35644Z" fill="#7F7F7F"/>
</svg>
