<svg  width="472" height="128" preserveAspectRatio="none" viewBox="0 0 472 128" fill="none" xmlns="http://www.w3.org/2000/svg">
<rect width="472" height="128" fill="#F9EECA"/>
<line x1="48.9921" y1="102.994" x2="48.9921" y2="112.323" stroke="url(#paint0_linear_104_2)" stroke-width="0.2"/>
<line x1="52.1108" y1="106.254" x2="42.782" y2="106.254" stroke="url(#paint1_linear_104_2)" stroke-width="0.2"/>
<line x1="52.0518" y1="107.758" x2="42.7229" y2="107.758" stroke="url(#paint2_linear_104_2)" stroke-width="0.2"/>
<line x1="51.9932" y1="109.262" x2="42.6643" y2="109.262" stroke="url(#paint3_linear_104_2)" stroke-width="0.2"/>
<line x1="45.9833" y1="102.994" x2="45.9833" y2="112.323" stroke="url(#paint4_linear_104_2)" stroke-width="0.2"/>
<line x1="47.4872" y1="102.994" x2="47.4872" y2="112.323" stroke="url(#paint5_linear_104_2)" stroke-width="0.2"/>
<rect x="38" y="98.7954" width="4.66444" height="22.3893" fill="url(#paint6_linear_104_2)"/>
<path d="M42.665 95.5303L52.4604 99.7283V122.584H42.665V95.5303Z" fill="url(#paint7_linear_104_2)"/>
<rect x="52" y="89" width="17" height="34" fill="url(#paint8_linear_104_2)"/>
<rect x="56.6582" y="105.792" width="2.33222" height="1.39933" fill="#D9D2D2"/>
<rect x="54.3257" y="94.5977" width="2.33222" height="1.39933" fill="#D9D2D2"/>
<rect x="54.3257" y="97.8623" width="2.33222" height="1.39933" fill="#D9D2D2"/>
<rect x="62.2554" y="102.061" width="2.33222" height="1.39933" fill="url(#paint9_linear_104_2)"/>
<rect x="62.2554" y="95.9966" width="2.33222" height="1.39933" fill="#D9D2D2"/>
<path d="M184.999 117.824C370.066 113.437 470 128 470 128H3.50004C3.50004 128 -0.0685272 122.21 184.999 117.824Z" fill="#FFC700"/>
<g opacity="0.5" clip-path="url(#clip0_104_2)">
<path d="M51.4097 40.5557H52.6849V41.1946H51.4097V40.5557Z" fill="#66757F"/>
<path d="M34.2778 45.6665V58.4443C34.2778 59.1221 34.5471 59.7721 35.0263 60.2513C35.5056 60.7306 36.1556 60.9998 36.8334 60.9998H52.1667C52.8445 60.9998 53.4945 60.7306 53.9738 60.2513C54.453 59.7721 54.7223 59.1221 54.7223 58.4443V45.6665H34.2778Z" fill="#E93636"/>
<path d="M52.1667 40.5557H36.8334C36.1556 40.5557 35.5056 40.8249 35.0263 41.3042C34.5471 41.7834 34.2778 42.4334 34.2778 43.1112V46.3057H54.7223V43.1112C54.7223 42.4334 54.453 41.7834 53.9738 41.3042C53.4945 40.8249 52.8445 40.5557 52.1667 40.5557Z" fill="#DD2E44"/>
<path d="M38.645 43.5779C38.1965 43.5779 37.833 43.1524 37.833 42.6266C37.833 42.1014 38.1965 41.6753 38.645 41.6753C39.0929 41.6753 39.4564 42.1014 39.4564 42.6266C39.4564 43.1518 39.0929 43.5779 38.645 43.5779ZM42.4784 43.5779C42.0299 43.5779 41.6663 43.1524 41.6663 42.6266C41.6663 42.1014 42.0299 41.6753 42.4784 41.6753C42.9262 41.6753 43.2898 42.1014 43.2898 42.6266C43.2898 43.1518 42.9262 43.5779 42.4784 43.5779ZM46.3117 43.5779C45.8632 43.5779 45.4997 43.1524 45.4997 42.6266C45.4997 42.1014 45.8632 41.6753 46.3117 41.6753C46.7596 41.6753 47.1237 42.1014 47.1237 42.6266C47.1231 43.1518 46.7596 43.5779 46.3117 43.5779ZM50.145 43.5779C49.6965 43.5779 49.333 43.1524 49.333 42.6266C49.333 42.1014 49.6965 41.6753 50.145 41.6753C50.5929 41.6753 50.9571 42.1014 50.9571 42.6266C50.9564 43.1518 50.5929 43.5779 50.145 43.5779Z" fill="#292F33"/>
<path d="M50.4514 38.1143C49.6356 38.1143 48.929 38.6266 48.5386 39.3729C48.1514 38.6426 47.4416 38.1143 46.6181 38.1143C45.8022 38.1143 45.0956 38.6266 44.7053 39.3729C44.3181 38.6426 43.6083 38.1143 42.7848 38.1143C41.9689 38.1143 41.2623 38.6266 40.8719 39.3729C40.4848 38.6426 39.775 38.1143 38.9514 38.1143C37.7158 38.1143 36.7153 39.2764 36.7153 40.673C36.7153 41.8575 37.383 42.8267 38.3566 43.1813C38.8416 43.357 39.1386 42.8957 39.0971 42.5258C39.062 42.2191 38.8582 42.0191 38.6314 41.8754C38.3215 41.6793 37.9925 41.2314 37.9925 40.6762C37.9925 39.9709 38.4212 39.3377 38.9508 39.3377C39.4804 39.3377 39.9091 39.9159 39.9091 40.5548H40.5582C40.5563 40.5944 40.548 40.6321 40.548 40.6724C40.548 41.8569 41.2157 42.8261 42.1893 43.1806C42.6742 43.3563 42.9713 42.8951 42.9298 42.5251C42.8947 42.2191 42.6909 42.0191 42.4641 41.8754C42.1542 41.6793 41.8252 41.2314 41.8252 40.6762C41.8252 39.9709 42.2539 39.3377 42.7835 39.3377C43.3131 39.3377 43.7431 39.9166 43.7431 40.5555H44.3922C44.3903 40.5951 44.382 40.6328 44.382 40.673C44.382 41.8575 45.0496 42.8267 46.0233 43.1813C46.5082 43.357 46.8053 42.8957 46.7638 42.5258C46.7286 42.2198 46.5248 42.0198 46.298 41.876C45.9882 41.6799 45.6591 41.232 45.6591 40.6768C45.6591 39.9715 46.0878 39.3384 46.6175 39.3384C47.1471 39.3384 47.5764 39.9166 47.5764 40.5555H48.2255C48.2236 40.5951 48.2153 40.6328 48.2153 40.673C48.2153 41.8575 48.883 42.8267 49.8566 43.1813C50.3415 43.357 50.6386 42.8957 50.5971 42.5258C50.562 42.2198 50.3582 42.0198 50.1314 41.876C49.8215 41.6799 49.4925 41.232 49.4925 40.6768C49.4925 39.9715 49.9212 39.3384 50.4508 39.3384C50.9804 39.3384 51.4098 39.9166 51.4098 40.5555H52.685C52.6716 39.2777 51.6781 38.1143 50.4514 38.1143Z" fill="#66757F"/>
<path d="M40.9859 47.5835H42.2637H43.5415V50.1391H40.9859V47.5835ZM44.1804 47.5835H46.7359V50.1391H44.1804V47.5835ZM47.3748 47.5835H49.9304V50.1391H47.3748V47.5835ZM37.7915 50.7779H40.3471V53.3335H37.7915V50.7779ZM40.9859 50.7779H43.5415V53.3335H40.9859V50.7779ZM44.1804 50.7779H46.7359V53.3335H44.1804V50.7779ZM47.3748 50.7779H49.9304V53.3335H47.3748V50.7779ZM37.7915 53.9724H40.3471V56.5279H37.7915V53.9724ZM40.9859 53.9724H43.5415V56.5279H40.9859V53.9724ZM44.1804 53.9724H46.7359V56.5279H44.1804V53.9724ZM47.3748 53.9724H49.9304V56.5279H47.3748V53.9724Z" fill="#F79898"/>
</g>
<g opacity="0.46">
<path d="M39.519 71C39.519 69.3431 38.1759 68 36.519 68H28.195V83.238H36.519C38.1759 83.238 39.519 81.8949 39.519 80.238V71Z" fill="#B2C7ED"/>
<path d="M16.8711 71C16.8711 69.3431 18.2142 68 19.8711 68H28.1951V83.238H19.8711C18.2142 83.238 16.8711 81.8949 16.8711 80.238V71Z" fill="#699BF7"/>
<path d="M24.2169 69.7751C24.1714 69.7481 24.1203 69.7344 24.0685 69.7352C24.0168 69.736 23.9661 69.7513 23.9213 69.7797C23.8763 69.8078 23.8388 69.8485 23.8127 69.8975C23.7867 69.9465 23.7728 70.0022 23.7727 70.0589L23.7477 72.4539L22.775 73.1627L21.8061 72.4562L21.8315 70.0348C21.8322 69.9782 21.8194 69.9223 21.7944 69.8727C21.7694 69.8231 21.7331 69.7814 21.689 69.7518C21.6449 69.7221 21.5945 69.7054 21.5427 69.7034C21.4909 69.7014 21.4396 69.7141 21.3937 69.7403C21.1231 69.8897 20.875 70.0834 20.6581 70.3149C19.4906 71.5913 19.4906 73.6683 20.6581 74.9447C20.7949 75.0943 20.9494 75.2281 21.1358 75.3577C21.0938 75.8323 21.0367 76.2642 20.9719 76.7536C20.8791 77.4532 20.7737 78.2453 20.6856 79.3871C20.6856 79.7857 20.7057 80.0511 20.8105 80.3629C20.9153 80.6748 21.0799 80.9585 21.2933 81.195C22.1106 82.0886 23.4402 82.0886 24.2575 81.195C24.472 80.9591 24.6366 80.6747 24.7399 80.3618C24.8432 80.0489 24.8826 79.7151 24.8555 79.3838C24.7901 78.4926 24.6962 77.6043 24.5739 76.7203C24.5108 76.242 24.4557 75.8207 24.4142 75.3577C24.601 75.2285 24.7559 75.0943 24.8927 74.9447C26.0602 73.6683 26.0602 71.5913 24.8927 70.3149C24.6925 70.1002 24.4648 69.9184 24.2169 69.7751Z" fill="#F3F7FF"/>
<path d="M39.519 85.7637C39.519 86.6281 38.4965 87.0853 37.8523 86.5091L29.9372 79.4286H39.519V85.7637Z" fill="#B2C7ED"/>
<rect x="29.0664" y="71.8096" width="7.83972" height="1.90475" rx="0.952375" fill="#699BF7"/>
<rect x="29.0664" y="74.6665" width="8.7108" height="1.90475" rx="0.952375" fill="#699BF7"/>
<rect x="29.0664" y="77.5239" width="6.09756" height="1.90475" rx="0.952375" fill="#699BF7"/>
</g>
<defs>
<linearGradient id="paint0_linear_104_2" x1="48.8921" y1="107.658" x2="47.8921" y2="107.658" gradientUnits="userSpaceOnUse">
<stop stop-color="#D9CCCC"/>
<stop offset="1" stop-color="#D1D1D1" stop-opacity="0"/>
</linearGradient>
<linearGradient id="paint1_linear_104_2" x1="47.4464" y1="106.154" x2="47.4464" y2="105.154" gradientUnits="userSpaceOnUse">
<stop stop-color="#D9CCCC"/>
<stop offset="1" stop-color="#D1D1D1" stop-opacity="0"/>
</linearGradient>
<linearGradient id="paint2_linear_104_2" x1="47.3873" y1="107.658" x2="47.3873" y2="106.658" gradientUnits="userSpaceOnUse">
<stop stop-color="#D9CCCC"/>
<stop offset="1" stop-color="#D1D1D1" stop-opacity="0"/>
</linearGradient>
<linearGradient id="paint3_linear_104_2" x1="47.3287" y1="109.162" x2="47.3287" y2="108.162" gradientUnits="userSpaceOnUse">
<stop stop-color="#D9CCCC"/>
<stop offset="1" stop-color="#D1D1D1" stop-opacity="0"/>
</linearGradient>
<linearGradient id="paint4_linear_104_2" x1="45.8833" y1="107.658" x2="44.8833" y2="107.658" gradientUnits="userSpaceOnUse">
<stop stop-color="#D9CCCC"/>
<stop offset="1" stop-color="#D1D1D1" stop-opacity="0"/>
</linearGradient>
<linearGradient id="paint5_linear_104_2" x1="47.3872" y1="107.658" x2="46.3872" y2="107.658" gradientUnits="userSpaceOnUse">
<stop stop-color="#D9CCCC"/>
<stop offset="1" stop-color="#D1D1D1" stop-opacity="0"/>
</linearGradient>
<linearGradient id="paint6_linear_104_2" x1="40.3322" y1="98.7954" x2="40.3322" y2="121.185" gradientUnits="userSpaceOnUse">
<stop stop-color="#D3D3D3"/>
<stop offset="1" stop-color="#D9D9D9" stop-opacity="0"/>
</linearGradient>
<linearGradient id="paint7_linear_104_2" x1="47.5627" y1="95.5303" x2="47.5627" y2="122.584" gradientUnits="userSpaceOnUse">
<stop stop-color="#CED9D8"/>
<stop offset="1" stop-color="#D9D9D9" stop-opacity="0"/>
</linearGradient>
<linearGradient id="paint8_linear_104_2" x1="60.5" y1="89" x2="60.5" y2="123" gradientUnits="userSpaceOnUse">
<stop stop-color="#E3E3E3"/>
<stop offset="1" stop-color="#D9D9D9" stop-opacity="0"/>
</linearGradient>
<linearGradient id="paint9_linear_104_2" x1="63.4215" y1="102.061" x2="63.4215" y2="103.46" gradientUnits="userSpaceOnUse">
<stop stop-color="#D9D2D2"/>
<stop offset="1" stop-color="#B9B9B9" stop-opacity="0"/>
</linearGradient>
<clipPath id="clip0_104_2">
<rect width="23" height="23" fill="white" transform="translate(33 38)"/>
</clipPath>
</defs>
</svg>
