<svg width="45" height="45" viewBox="0 0 45 45" fill="none" xmlns="http://www.w3.org/2000/svg">
<path d="M19.2 43.7999L1.2 25.7999C-0.4 24.1999 -0.4 21.6999 1.2 20.0999L19.2 2.0999C20.8 0.499902 23.3 0.499902 24.9 2.0999L42.9 20.0999C44.5 21.6999 44.5 24.1999 42.9 25.7999L24.9 43.7999C23.3 45.3999 20.7 45.3999 19.2 43.7999Z" fill="#F44336"/>
<path d="M19.6001 31.7C19.6001 31.4 19.7001 31.1 19.8001 30.8C19.9001 30.5 20.1001 30.3 20.3001 30.1C20.5001 29.9 20.8001 29.7 21.1001 29.6C21.4001 29.5 21.7001 29.4 22.1001 29.4C22.5001 29.4 22.8001 29.5 23.1001 29.6C23.4001 29.7 23.7001 29.9 23.9001 30.1C24.1001 30.3 24.3001 30.5 24.4001 30.8C24.5001 31.1 24.6001 31.4 24.6001 31.7C24.6001 32 24.5001 32.3 24.4001 32.6C24.3001 32.9 24.1001 33.1 23.9001 33.3C23.7001 33.5 23.4001 33.7 23.1001 33.8C22.8001 33.9 22.5001 34 22.1001 34C21.7001 34 21.4001 33.9 21.1001 33.8C20.8001 33.7 20.6001 33.5 20.3001 33.3C20.1001 33.1 19.9001 32.9 19.8001 32.6C19.7001 32.3 19.6001 32.1 19.6001 31.7ZM23.8001 27.1H20.2001L19.7001 12H24.3001L23.8001 27.1Z" fill="white"/>
</svg>
