<svg  viewBox="0 0 472 128" fill="none" xmlns="http://www.w3.org/2000/svg">
<rect width="472" height="128" fill="#EBF7E9"/>
<line x1="380.451" y1="86" x2="380.451" y2="106" stroke="url(#paint0_linear_96_3)" stroke-width="0.2"/>
<line x1="387.252" y1="92.8761" x2="367.252" y2="92.8761" stroke="url(#paint1_linear_96_3)" stroke-width="0.2"/>
<line x1="387.125" y1="96.1" x2="367.125" y2="96.1" stroke="url(#paint2_linear_96_3)" stroke-width="0.2"/>
<line x1="387" y1="99.3236" x2="367" y2="99.3236" stroke="url(#paint3_linear_96_3)" stroke-width="0.2"/>
<line x1="374.001" y1="86" x2="374.001" y2="106" stroke="url(#paint4_linear_96_3)" stroke-width="0.2"/>
<line x1="377.225" y1="86" x2="377.225" y2="106" stroke="url(#paint5_linear_96_3)" stroke-width="0.2"/>
<rect x="397" y="92" width="5" height="3" fill="#D9D2D2"/>
<rect x="357" y="77" width="10" height="48" fill="url(#paint6_linear_96_3)"/>
<path d="M367 70L388 79V128H367V70Z" fill="url(#paint7_linear_96_3)"/>
<rect x="387" y="56" width="30" height="72" fill="url(#paint8_linear_96_3)"/>
<rect x="392" y="68" width="5" height="3" fill="#D9D2D2"/>
<rect x="392" y="75" width="5" height="3" fill="#D9D2D2"/>
<rect x="409" y="84" width="5" height="3" fill="url(#paint9_linear_96_3)"/>
<rect x="409" y="71" width="5" height="3" fill="#D9D2D2"/>
<path d="M184.999 117.824C370.066 113.437 195.266 128 195.266 128H3.50006C3.50006 128 -0.0684967 122.21 184.999 117.824Z" fill="#85CB3F"/>
<path d="M345 107C367 118 388 128 388 128H195C195 128 323 95.9999 345 107Z" fill="#6EB317"/>
<g opacity="0.5" clip-path="url(#clip0_96_3)">
<path d="M378.41 38.5557H379.685V39.1946H378.41V38.5557Z" fill="#66757F"/>
<path d="M361.278 43.6667V56.4445C361.278 57.1223 361.547 57.7723 362.026 58.2516C362.506 58.7308 363.156 59.0001 363.833 59.0001H379.167C379.844 59.0001 380.495 58.7308 380.974 58.2516C381.453 57.7723 381.722 57.1223 381.722 56.4445V43.6667H361.278Z" fill="#E93636"/>
<path d="M379.167 38.5557H363.833C363.156 38.5557 362.506 38.8249 362.026 39.3042C361.547 39.7834 361.278 40.4334 361.278 41.1112V44.3057H381.722V41.1112C381.722 40.4334 381.453 39.7834 380.974 39.3042C380.495 38.8249 379.844 38.5557 379.167 38.5557Z" fill="#DD2E44"/>
<path d="M365.645 41.5781C365.197 41.5781 364.833 41.1526 364.833 40.6268C364.833 40.1017 365.197 39.6755 365.645 39.6755C366.093 39.6755 366.457 40.1017 366.457 40.6268C366.457 41.152 366.093 41.5781 365.645 41.5781ZM369.479 41.5781C369.03 41.5781 368.667 41.1526 368.667 40.6268C368.667 40.1017 369.03 39.6755 369.479 39.6755C369.926 39.6755 370.29 40.1017 370.29 40.6268C370.29 41.152 369.926 41.5781 369.479 41.5781ZM373.312 41.5781C372.863 41.5781 372.5 41.1526 372.5 40.6268C372.5 40.1017 372.863 39.6755 373.312 39.6755C373.76 39.6755 374.124 40.1017 374.124 40.6268C374.123 41.152 373.76 41.5781 373.312 41.5781ZM377.145 41.5781C376.697 41.5781 376.333 41.1526 376.333 40.6268C376.333 40.1017 376.697 39.6755 377.145 39.6755C377.593 39.6755 377.957 40.1017 377.957 40.6268C377.957 41.152 377.593 41.5781 377.145 41.5781Z" fill="#292F33"/>
<path d="M377.451 36.1143C376.635 36.1143 375.929 36.6266 375.538 37.3729C375.151 36.6426 374.441 36.1143 373.618 36.1143C372.802 36.1143 372.095 36.6266 371.705 37.3729C371.318 36.6426 370.608 36.1143 369.785 36.1143C368.969 36.1143 368.262 36.6266 367.872 37.3729C367.485 36.6426 366.775 36.1143 365.951 36.1143C364.716 36.1143 363.715 37.2764 363.715 38.673C363.715 39.8575 364.383 40.8267 365.356 41.1813C365.841 41.357 366.138 40.8957 366.097 40.5258C366.062 40.2191 365.858 40.0191 365.631 39.8754C365.321 39.6793 364.992 39.2314 364.992 38.6762C364.992 37.9709 365.421 37.3377 365.951 37.3377C366.48 37.3377 366.909 37.9159 366.909 38.5548H367.558C367.556 38.5944 367.548 38.6321 367.548 38.6724C367.548 39.8569 368.215 40.8261 369.189 41.1806C369.674 41.3563 369.971 40.8951 369.93 40.5251C369.894 40.2191 369.691 40.0191 369.464 39.8754C369.154 39.6793 368.825 39.2314 368.825 38.6762C368.825 37.9709 369.254 37.3377 369.783 37.3377C370.313 37.3377 370.743 37.9166 370.743 38.5555H371.392C371.39 38.5951 371.382 38.6328 371.382 38.673C371.382 39.8575 372.049 40.8267 373.023 41.1813C373.508 41.357 373.805 40.8957 373.764 40.5258C373.728 40.2198 373.525 40.0198 373.298 39.876C372.988 39.6799 372.659 39.232 372.659 38.6768C372.659 37.9715 373.088 37.3384 373.617 37.3384C374.147 37.3384 374.576 37.9166 374.576 38.5555H375.225C375.223 38.5951 375.215 38.6328 375.215 38.673C375.215 39.8575 375.883 40.8267 376.856 41.1813C377.341 41.357 377.638 40.8957 377.597 40.5258C377.562 40.2198 377.358 40.0198 377.131 39.876C376.821 39.6799 376.492 39.232 376.492 38.6768C376.492 37.9715 376.921 37.3384 377.451 37.3384C377.98 37.3384 378.41 37.9166 378.41 38.5555H379.685C379.671 37.2777 378.678 36.1143 377.451 36.1143Z" fill="#66757F"/>
<path d="M367.986 45.5833H369.264H370.542V48.1388H367.986V45.5833ZM371.181 45.5833H373.736V48.1388H371.181V45.5833ZM374.375 45.5833H376.931V48.1388H374.375V45.5833ZM364.792 48.7777H367.347V51.3333H364.792V48.7777ZM367.986 48.7777H370.542V51.3333H367.986V48.7777ZM371.181 48.7777H373.736V51.3333H371.181V48.7777ZM374.375 48.7777H376.931V51.3333H374.375V48.7777ZM364.792 51.9721H367.347V54.5277H364.792V51.9721ZM367.986 51.9721H370.542V54.5277H367.986V51.9721ZM371.181 51.9721H373.736V54.5277H371.181V51.9721ZM374.375 51.9721H376.931V54.5277H374.375V51.9721Z" fill="#F79898"/>
</g>
<g opacity="0.46">
<path d="M445.286 31C445.286 29.3431 443.942 28 442.286 28H423V55.4286H442.286C443.942 55.4286 445.286 54.0854 445.286 52.4286V31Z" fill="#B2C7ED"/>
<path d="M400.714 31C400.714 29.3431 402.058 28 403.714 28H423V55.4286H403.714C402.058 55.4286 400.714 54.0854 400.714 52.4286V31Z" fill="#699BF7"/>
<path d="M415.171 31.1951C415.081 31.1466 414.981 31.1219 414.879 31.1234C414.777 31.1248 414.677 31.1524 414.589 31.2035C414.501 31.2542 414.427 31.3273 414.375 31.4155C414.324 31.5037 414.297 31.6039 414.297 31.706L414.247 36.017L412.333 37.2929L410.426 36.0212L410.476 31.6627C410.478 31.5607 410.453 31.4602 410.403 31.3709C410.354 31.2816 410.283 31.2066 410.196 31.1532C410.109 31.0998 410.01 31.0698 409.908 31.0662C409.806 31.0626 409.705 31.0855 409.615 31.1326C409.082 31.4014 408.594 31.7502 408.167 32.1669C405.87 34.4645 405.87 38.203 408.167 40.5006C408.436 40.7698 408.74 41.0106 409.107 41.244C409.025 42.0982 408.912 42.8757 408.785 43.7566C408.602 45.0158 408.395 46.4417 408.221 48.4968C408.221 49.2143 408.261 49.6921 408.467 50.2534C408.673 50.8147 408.997 51.3254 409.417 51.7512C411.026 53.3596 413.642 53.3596 415.251 51.7512C415.673 51.3265 415.997 50.8146 416.2 50.2514C416.403 49.6882 416.481 49.0874 416.428 48.491C416.299 46.8869 416.114 45.2878 415.873 43.6966C415.749 42.8357 415.641 42.0774 415.559 41.244C415.927 41.0115 416.232 40.7698 416.501 40.5006C418.799 38.203 418.799 34.4645 416.501 32.1669C416.107 31.7804 415.659 31.4531 415.171 31.1951Z" fill="#F3F7FF"/>
<path d="M445.286 61.8898C445.286 62.7334 444.305 63.1979 443.652 62.6637L426.429 48.5714H445.286V61.8898Z" fill="#B2C7ED"/>
<rect x="424.714" y="34.8572" width="15.4286" height="3.42857" rx="1.71429" fill="#699BF7"/>
<rect x="424.714" y="40" width="17.1429" height="3.42857" rx="1.71429" fill="#699BF7"/>
<rect x="424.714" y="45.1428" width="12" height="3.42857" rx="1.71429" fill="#699BF7"/>
</g>
<defs>
<linearGradient id="paint0_linear_96_3" x1="380.351" y1="96" x2="379.351" y2="96" gradientUnits="userSpaceOnUse">
<stop stop-color="#D9CCCC"/>
<stop offset="1" stop-color="#D1D1D1" stop-opacity="0"/>
</linearGradient>
<linearGradient id="paint1_linear_96_3" x1="377.252" y1="92.7761" x2="377.252" y2="91.7761" gradientUnits="userSpaceOnUse">
<stop stop-color="#D9CCCC"/>
<stop offset="1" stop-color="#D1D1D1" stop-opacity="0"/>
</linearGradient>
<linearGradient id="paint2_linear_96_3" x1="377.125" y1="96" x2="377.125" y2="95" gradientUnits="userSpaceOnUse">
<stop stop-color="#D9CCCC"/>
<stop offset="1" stop-color="#D1D1D1" stop-opacity="0"/>
</linearGradient>
<linearGradient id="paint3_linear_96_3" x1="377" y1="99.2236" x2="377" y2="98.2236" gradientUnits="userSpaceOnUse">
<stop stop-color="#D9CCCC"/>
<stop offset="1" stop-color="#D1D1D1" stop-opacity="0"/>
</linearGradient>
<linearGradient id="paint4_linear_96_3" x1="373.901" y1="96" x2="372.901" y2="96" gradientUnits="userSpaceOnUse">
<stop stop-color="#D9CCCC"/>
<stop offset="1" stop-color="#D1D1D1" stop-opacity="0"/>
</linearGradient>
<linearGradient id="paint5_linear_96_3" x1="377.125" y1="96" x2="376.125" y2="96" gradientUnits="userSpaceOnUse">
<stop stop-color="#D9CCCC"/>
<stop offset="1" stop-color="#D1D1D1" stop-opacity="0"/>
</linearGradient>
<linearGradient id="paint6_linear_96_3" x1="362" y1="77" x2="362" y2="125" gradientUnits="userSpaceOnUse">
<stop stop-color="#D3D3D3"/>
<stop offset="1" stop-color="#D9D9D9" stop-opacity="0"/>
</linearGradient>
<linearGradient id="paint7_linear_96_3" x1="377.5" y1="70" x2="377.5" y2="128" gradientUnits="userSpaceOnUse">
<stop stop-color="#CED9D8"/>
<stop offset="1" stop-color="#D9D9D9" stop-opacity="0"/>
</linearGradient>
<linearGradient id="paint8_linear_96_3" x1="402" y1="56" x2="402" y2="128" gradientUnits="userSpaceOnUse">
<stop stop-color="#E3E3E3"/>
<stop offset="1" stop-color="#D9D9D9" stop-opacity="0"/>
</linearGradient>
<linearGradient id="paint9_linear_96_3" x1="411.5" y1="84" x2="411.5" y2="87" gradientUnits="userSpaceOnUse">
<stop stop-color="#D9D2D2"/>
<stop offset="1" stop-color="#B9B9B9" stop-opacity="0"/>
</linearGradient>
<clipPath id="clip0_96_3">
<rect width="23" height="23" fill="white" transform="translate(360 36)"/>
</clipPath>
</defs>
</svg>
