<svg width="10" height="10" viewBox="0 0 10 10" fill="none" xmlns="http://www.w3.org/2000/svg">
<path d="M9.76612 2.46841L7.5316 0.234382C7.4573 0.160075 7.3691 0.10113 7.27203 0.0609146C7.17496 0.0206989 7.07091 0 6.96584 0C6.86076 0 6.75672 0.0206989 6.65965 0.0609146C6.56257 0.10113 6.47437 0.160075 6.40008 0.234382L0.234507 6.39996C0.159896 6.47397 0.100742 6.56209 0.0604843 6.65917C0.0202267 6.75625 -0.000331724 6.86037 4.04752e-06 6.96546V9.19999C4.04752e-06 9.41217 0.0842905 9.61565 0.234321 9.76568C0.384352 9.91571 0.587838 10 0.800014 10H9.20012C9.3062 10 9.40795 9.95786 9.48296 9.88284C9.55798 9.80783 9.60012 9.70608 9.60012 9.6C9.60012 9.49391 9.55798 9.39216 9.48296 9.31715C9.40795 9.24213 9.3062 9.19999 9.20012 9.19999H4.16605L9.76612 3.59992C9.84043 3.52563 9.89937 3.43743 9.93959 3.34036C9.9798 3.24328 10.0005 3.13924 10.0005 3.03417C10.0005 2.92909 9.9798 2.82505 9.93959 2.72797C9.89937 2.6309 9.84043 2.5427 9.76612 2.46841ZM5.20007 2.56541L6.03458 3.39992L1.80003 7.63447L0.965516 6.79996L5.20007 2.56541ZM0.800014 9.19999V7.76547L2.23453 9.19999H0.800014ZM3.20004 9.03449L2.36603 8.19998L6.60008 3.96543L7.43459 4.79994L3.20004 9.03449ZM8.0001 4.23443L5.76607 1.9999L6.96609 0.799889L9.20012 3.03442L8.0001 4.23443Z" fill="white"/>
</svg>
