<svg width="16" height="16" viewBox="0 0 16 16" fill="none" xmlns="http://www.w3.org/2000/svg">
<path d="M2.78261 0V0.695652H0V16H15.3043V0.695652H12.5217V0H11.1304V0.695652H4.17391V0H2.78261ZM1.3913 2.08696H2.78261V2.78261H4.17391V2.08696H11.1304V2.78261H12.5217V2.08696H13.913V3.47826H1.3913V2.08696ZM1.3913 4.86957H13.913V14.6087H1.3913V4.86957ZM5.71757 6.80417L4.71652 7.80522L6.65183 9.73913L4.71791 11.6737L5.71757 12.6741L7.65217 10.7388L9.58678 12.6741L10.5871 11.6737L8.65183 9.73913L10.5871 7.80452L9.58678 6.80417L7.65217 8.73878L5.71757 6.80417Z" fill="#7C7C7C"/>
</svg>
