<svg width="45" height="45" viewBox="0 0 45 45" fill="none" xmlns="http://www.w3.org/2000/svg">
<path d="M19.2 43.7999L1.2 25.7999C-0.4 24.1999 -0.4 21.6999 1.2 20.0999L19.2 2.0999C20.8 0.499902 23.3 0.499902 24.9 2.0999L42.9 20.0999C44.5 21.6999 44.5 24.1999 42.9 25.7999L24.9 43.7999C23.3 45.3999 20.7 45.3999 19.2 43.7999Z" fill="#FFC107"/>
<path d="M22 25C23.1046 25 24 24.1046 24 23C24 21.8954 23.1046 21 22 21C20.8954 21 20 21.8954 20 23C20 24.1046 20.8954 25 22 25Z" fill="#37474F"/>
<path d="M30 25C31.1046 25 32 24.1046 32 23C32 21.8954 31.1046 21 30 21C28.8954 21 28 21.8954 28 23C28 24.1046 28.8954 25 30 25Z" fill="#37474F"/>
<path d="M14 25C15.1046 25 16 24.1046 16 23C16 21.8954 15.1046 21 14 21C12.8954 21 12 21.8954 12 23C12 24.1046 12.8954 25 14 25Z" fill="#37474F"/>
</svg>
