<svg width="90" height="90" viewBox="0 0 90 90" fill="none" xmlns="http://www.w3.org/2000/svg">
<rect width="90" height="90" rx="4" fill="url(#paint0_linear_143_14)"/>
<rect x="41" y="63.8887" width="41" height="26" fill="#984A4A"/>
<path d="M76.8334 53H46.1668C44.8112 53 43.5112 53.5385 42.5527 54.497C41.5942 55.4555 41.0557 56.7556 41.0557 58.1111V64.5H81.9446V58.1111C81.9446 56.7556 81.4061 55.4555 80.4475 54.497C79.489 53.5385 78.189 53 76.8334 53Z" fill="#853030"/>
<path d="M55.8889 67.8887H58.4444H61V72.9998H55.8889V67.8887ZM62.2778 67.8887H67.3889V72.9998H62.2778V67.8887ZM68.6667 67.8887H73.7778V72.9998H68.6667V67.8887ZM49.5 74.2776H54.6111V79.3887H49.5V74.2776ZM55.8889 74.2776H61V79.3887H55.8889V74.2776ZM62.2778 74.2776H67.3889V79.3887H62.2778V74.2776ZM68.6667 74.2776H73.7778V79.3887H68.6667V74.2776ZM49.5 80.6664H54.6111V85.7776H49.5V80.6664ZM55.8889 80.6664H61V85.7776H55.8889V80.6664ZM62.2778 80.6664H67.3889V85.7776H62.2778V80.6664ZM68.6667 80.6664H73.7778V85.7776H68.6667V80.6664Z" fill="#AF5858"/>
<defs>
<linearGradient id="paint0_linear_143_14" x1="45" y1="0" x2="45" y2="90" gradientUnits="userSpaceOnUse">
<stop stop-color="#984A39"/>
<stop offset="1" stop-color="#CD220B"/>
</linearGradient>
</defs>
</svg>
