<svg width="11" height="10" viewBox="0 0 11 10" fill="none" xmlns="http://www.w3.org/2000/svg">
<path d="M8 1.00009C8 0.734869 8.10536 0.480515 8.29289 0.292979C8.48043 0.105442 8.73478 8.5637e-05 9 8.5637e-05L11 0C11 0 11 0.734784 11 1V9.5C10.5 9.5 9.66302 9.5 8.99998 9.5L3 9.50009C2.73478 9.50009 1 9.50009 1 9.50009H0V8.00009C0 7.73487 0.105357 7.48052 0.292893 7.29298C0.48043 7.10544 0.734784 7.00009 1 7.00009H4V5.00009C4 4.73487 4.10536 4.48052 4.29289 4.29298C4.48043 4.10544 4.73478 4.00009 5 4.00009H8V1.00009Z" fill="#7F7F7F"/>
</svg>
