<svg width="27" height="28" viewBox="0 0 27 28" fill="none" xmlns="http://www.w3.org/2000/svg">
<circle cx="13.05" cy="14.05" r="13.05" fill="white"/>
<path d="M13.5161 0.893307C10.8949 0.893307 8.33251 1.67059 6.15304 3.12687C3.97357 4.58314 2.27488 6.653 1.27178 9.0747C0.268682 11.4964 0.00622522 14.1612 0.517601 16.732C1.02898 19.3029 2.29122 21.6644 4.1447 23.5179C5.99819 25.3713 8.35968 26.6336 10.9305 27.145C13.5014 27.6563 16.1662 27.3939 18.5879 26.3908C21.0096 25.3877 23.0794 23.689 24.5357 21.5095C25.992 19.33 26.7692 16.7677 26.7692 14.1465C26.7692 10.6315 25.3729 7.26051 22.8875 4.77506C20.402 2.28962 17.0311 0.893307 13.5161 0.893307ZM11.6228 19.4383L6.88952 14.705L8.3947 13.1998L11.6228 16.4279L18.6375 9.41319L20.1484 10.9146L11.6228 19.4383Z" fill="#4ECB71"/>
</svg>
