<svg width="90" height="90" viewBox="0 0 90 90" fill="none" xmlns="http://www.w3.org/2000/svg">
<rect width="90" height="90" rx="4" fill="url(#paint0_linear_143_15)"/>
<path d="M70.4062 47.4884C70.2655 47.4051 70.1076 47.3626 69.9475 47.3651C69.7875 47.3676 69.6308 47.415 69.4923 47.5027C69.3531 47.5898 69.2373 47.7154 69.1566 47.8669C69.076 48.0185 69.0332 48.1906 69.0327 48.3659L68.9555 55.7712L65.9479 57.9628L62.9522 55.7783L63.0308 48.2915C63.0328 48.1164 62.9933 47.9437 62.916 47.7903C62.8388 47.6369 62.7265 47.5081 62.5901 47.4164C62.4536 47.3246 62.2978 47.2731 62.1378 47.2669C61.9777 47.2608 61.8189 47.3001 61.6769 47.381C60.8403 47.8427 60.0733 48.4419 59.4026 49.1575C55.7928 53.1042 55.7928 59.5261 59.4026 63.4728C59.8255 63.9352 60.3034 64.3489 60.8795 64.7497C60.7499 66.217 60.5732 67.5526 60.3728 69.0657C60.0861 71.2288 59.7601 73.6781 59.4877 77.2082C59.4877 78.4407 59.5498 79.2614 59.8738 80.2256C60.1979 81.1898 60.7069 82.067 61.3666 82.7983C63.8936 85.5612 68.0049 85.5612 70.5319 82.7983C71.195 82.0688 71.704 81.1895 72.0234 80.2221C72.3428 79.2547 72.4647 78.2226 72.3807 77.1982C72.1785 74.4428 71.8881 71.6959 71.51 68.9627C71.3149 67.4839 71.1447 66.1812 71.0164 64.7497C71.5938 64.3503 72.073 63.9352 72.4959 63.4728C76.1057 59.5261 76.1057 53.1042 72.4959 49.1575C71.8767 48.4938 71.1728 47.9315 70.4062 47.4884Z" fill="#2D831F"/>
<defs>
<linearGradient id="paint0_linear_143_15" x1="45" y1="0" x2="45" y2="90" gradientUnits="userSpaceOnUse">
<stop stop-color="#65D549"/>
<stop offset="1" stop-color="#348227"/>
</linearGradient>
</defs>
</svg>
