<svg width="32" height="32" viewBox="0 0 32 32" fill="none" xmlns="http://www.w3.org/2000/svg">
<path d="M8.94 0.44C9.07909 0.300583 9.2443 0.18996 9.42619 0.11446C9.60808 0.0389595 9.80307 6.44877e-05 10 0L22 0C22.398 0 22.778 0.158 23.06 0.44L31.56 8.94C31.842 9.22 32 9.602 32 10V22C31.9999 22.1969 31.961 22.3919 31.8855 22.5738C31.81 22.7557 31.6994 22.9209 31.56 23.06L23.06 31.56C22.9209 31.6994 22.7557 31.81 22.5738 31.8855C22.3919 31.961 22.1969 31.9999 22 32H10C9.80307 31.9999 9.60808 31.961 9.42619 31.8855C9.2443 31.81 9.07909 31.6994 8.94 31.56L0.44 23.06C0.300583 22.9209 0.18996 22.7557 0.11446 22.5738C0.0389595 22.3919 6.44877e-05 22.1969 0 22L0 10C0 9.602 0.158 9.222 0.44 8.94L8.94 0.44ZM10.62 3L3 10.62V21.38L10.62 29H21.38L29 21.38V10.62L21.38 3H10.62ZM16 8C16.3978 8 16.7794 8.15804 17.0607 8.43934C17.342 8.72064 17.5 9.10218 17.5 9.5V16.5C17.5 16.8978 17.342 17.2794 17.0607 17.5607C16.7794 17.842 16.3978 18 16 18C15.6022 18 15.2206 17.842 14.9393 17.5607C14.658 17.2794 14.5 16.8978 14.5 16.5V9.5C14.5 9.10218 14.658 8.72064 14.9393 8.43934C15.2206 8.15804 15.6022 8 16 8ZM16 24C15.4696 24 14.9609 23.7893 14.5858 23.4142C14.2107 23.0391 14 22.5304 14 22C14 21.4696 14.2107 20.9609 14.5858 20.5858C14.9609 20.2107 15.4696 20 16 20C16.5304 20 17.0391 20.2107 17.4142 20.5858C17.7893 20.9609 18 21.4696 18 22C18 22.5304 17.7893 23.0391 17.4142 23.4142C17.0391 23.7893 16.5304 24 16 24Z" fill="#C03026"/>
</svg>
