<svg width="90" height="90" viewBox="0 0 90 90" fill="none" xmlns="http://www.w3.org/2000/svg">
<rect width="90" height="90" rx="4" fill="url(#paint0_linear_143_8)"/>
<path d="M66.2151 42.2845C67.9657 42.6658 68.994 44.4865 68.4166 46.1825L54.1922 87.9668C53.7783 89.1825 52.6365 90 51.3522 90H10.6842C8.78297 90 7.36124 88.254 7.74644 86.3922L18.3858 34.9687C18.724 33.3342 20.3312 32.29 21.9621 32.6452L66.2151 42.2845Z" fill="#164160"/>
<path d="M58 38.5L39.0494 90H7L17 34L58 38.5Z" fill="#114E78"/>
<path d="M57.5111 58.2767C58.985 58.3079 59.3654 60.3325 58.0032 60.8964C57.8381 60.9648 57.6611 61 57.4823 61H44.9578C43.5805 61 42.9368 59.2948 43.9705 58.3846C44.2515 58.1373 44.6151 58.0044 44.9893 58.0123L57.5111 58.2767Z" fill="#114E78"/>
<path d="M52.3302 65.666C53.1377 65.8275 53.5347 66.7463 53.0991 67.445C52.8839 67.7902 52.5059 68 52.0991 68H38.8028C37.6047 68 36.8901 66.6648 37.5547 65.6679C37.8329 65.2507 38.3012 65 38.8028 65H48.7029C48.9005 65 49.0976 65.0195 49.2913 65.0583L52.3302 65.666Z" fill="#114E78"/>
<defs>
<linearGradient id="paint0_linear_143_8" x1="45" y1="0" x2="45" y2="90" gradientUnits="userSpaceOnUse">
<stop stop-color="#658EDA"/>
<stop offset="1"/>
</linearGradient>
</defs>
</svg>
