<svg width="16" height="32" viewBox="0 0 16 32" fill="none" xmlns="http://www.w3.org/2000/svg">
<path d="M8 6C8.79565 6 9.55871 5.68393 10.1213 5.12132C10.6839 4.55871 11 3.79565 11 3C11 2.20435 10.6839 1.44129 10.1213 0.87868C9.55871 0.31607 8.79565 0 8 0C7.20435 0 6.44129 0.31607 5.87868 0.87868C5.31607 1.44129 5 2.20435 5 3C5 3.79565 5.31607 4.55871 5.87868 5.12132C6.44129 5.68393 7.20435 6 8 6ZM4 13.5V30.5C4 30.8978 4.15804 31.2794 4.43934 31.5607C4.72064 31.842 5.10218 32 5.5 32C5.89782 32 6.27936 31.842 6.56066 31.5607C6.84196 31.2794 7 30.8978 7 30.5V21C7 20.7348 7.10536 20.4804 7.29289 20.2929C7.48043 20.1054 7.73478 20 8 20C8.26522 20 8.51957 20.1054 8.70711 20.2929C8.89464 20.4804 9 20.7348 9 21V30.5C9 30.8978 9.15804 31.2794 9.43934 31.5607C9.72064 31.842 10.1022 32 10.5 32C10.8978 32 11.2794 31.842 11.5607 31.5607C11.842 31.2794 12 30.8978 12 30.5V13.5C12 13.3674 12.0527 13.2402 12.1464 13.1464C12.2402 13.0527 12.3674 13 12.5 13C12.6326 13 12.7598 13.0527 12.8536 13.1464C12.9473 13.2402 13 13.3674 13 13.5V18.5C13 18.8978 13.158 19.2794 13.4393 19.5607C13.7206 19.842 14.1022 20 14.5 20C14.8978 20 15.2794 19.842 15.5607 19.5607C15.842 19.2794 16 18.8978 16 18.5V13C16 11.4087 15.3679 9.88258 14.2426 8.75736C13.1174 7.63214 11.5913 7 10 7H6C4.4087 7 2.88258 7.63214 1.75736 8.75736C0.632141 9.88258 0 11.4087 0 13V18.5C0 18.8978 0.158035 19.2794 0.43934 19.5607C0.720644 19.842 1.10218 20 1.5 20C1.89782 20 2.27936 19.842 2.56066 19.5607C2.84196 19.2794 3 18.8978 3 18.5V13.5C3 13.3674 3.05268 13.2402 3.14645 13.1464C3.24021 13.0527 3.36739 13 3.5 13C3.63261 13 3.75979 13.0527 3.85355 13.1464C3.94732 13.2402 4 13.3674 4 13.5Z" fill="#4F81DE"/>
</svg>
