<svg width="20" height="32" viewBox="0 0 20 32" fill="none" xmlns="http://www.w3.org/2000/svg">
<path d="M11.4897 2.99671C11.4897 3.79149 11.174 4.55371 10.612 5.1157C10.05 5.6777 9.28776 5.99342 8.49299 5.99342C7.69821 5.99342 6.93598 5.6777 6.37399 5.1157C5.812 4.55371 5.49628 3.79149 5.49628 2.99671C5.49628 2.20193 5.812 1.43971 6.37399 0.877716C6.93598 0.315724 7.69821 0 8.49299 0C9.28776 0 10.05 0.315724 10.612 0.877716C11.174 1.43971 11.4897 2.20193 11.4897 2.99671ZM5.37641 7.49577C5.51681 7.33766 5.68908 7.21107 5.88191 7.12429C6.07473 7.03752 6.28373 6.99255 6.49518 6.99232H9.38201C10.8644 6.99232 12.0191 8.27691 11.8653 9.7493L11.0062 17.9063C10.9783 18.1753 10.9193 18.4401 10.8304 18.6955L10.1951 20.5055L10.6206 20.989C10.7125 21.0943 10.7892 21.212 10.8484 21.3386L14.844 29.8292C14.9338 30.008 14.9868 30.2029 15.0001 30.4025C15.0133 30.6021 14.9864 30.8023 14.9211 30.9914C14.8557 31.1804 14.7531 31.3545 14.6194 31.5032C14.4857 31.652 14.3235 31.7725 14.1425 31.8576C13.9615 31.9427 13.7653 31.9907 13.5654 31.9988C13.3655 32.0068 13.1661 31.9748 12.9788 31.9046C12.7915 31.8343 12.6202 31.7273 12.4749 31.5897C12.3296 31.4522 12.2134 31.287 12.133 31.1039L8.22528 22.805L4.86896 18.9672C4.61065 18.6737 4.4773 18.2908 4.49737 17.9003L4.77307 12.6801L3.90402 13.657L2.97704 19.2229C2.91187 19.615 2.69361 19.9651 2.37028 20.1963C2.04695 20.4275 1.64503 20.5207 1.25294 20.4555C0.860846 20.3904 0.510704 20.1721 0.279538 19.8488C0.0483721 19.5254 -0.0448823 19.1235 0.0202894 18.7314L1.01919 12.738C1.06603 12.4594 1.19069 12.1997 1.3788 11.9888L5.37441 7.49377L5.37641 7.49577Z" fill="#4F81DE"/>
<path d="M4.99691 23.4639V20.631L7.40227 23.378L7.9237 24.4248C7.87129 24.5915 7.79016 24.7477 7.68396 24.8863L2.68944 31.3792C2.4473 31.6945 2.08984 31.9006 1.6957 31.9523C1.30155 32.004 0.903015 31.897 0.587753 31.6549C0.272492 31.4128 0.0663332 31.0553 0.0146299 30.6612C-0.0370734 30.267 0.0699137 29.8685 0.312056 29.5532L4.99691 23.4639ZM13.4277 15.0431L12.4407 14.0562L12.8503 10.3743C12.8551 10.3297 12.8591 10.2851 12.8623 10.2404L15.1078 12.486H17.9846C18.382 12.486 18.7631 12.6438 19.0441 12.9248C19.3251 13.2058 19.483 13.5869 19.483 13.9843C19.483 14.3817 19.3251 14.7628 19.0441 15.0438C18.7631 15.3248 18.382 15.4827 17.9846 15.4827H14.4865C14.2895 15.4828 14.0943 15.444 13.9123 15.3686C13.7303 15.2931 13.5649 15.1826 13.4257 15.0431H13.4277Z" fill="#4F81DE"/>
</svg>
