<svg width="90" height="90" viewBox="0 0 90 90" fill="none" xmlns="http://www.w3.org/2000/svg">
<rect width="90" height="90" rx="4" fill="url(#paint0_linear_143_7)"/>
<path fill-rule="evenodd" clip-rule="evenodd" d="M57.3362 48.5833C56.1207 48.5833 54.9549 49.0662 54.0953 49.9258C53.2358 50.7853 52.7529 51.9511 52.7529 53.1667H61.9196C61.9196 51.9511 61.4367 50.7853 60.5771 49.9258C59.7176 49.0662 58.5518 48.5833 57.3362 48.5833ZM51.2725 46.2917C52.8881 44.8663 55.0125 44 57.3362 44C59.66 44 61.7821 44.8663 63.4 46.2917H71.0862C72.3018 46.2917 73.4676 46.7746 74.3271 47.6341C75.1867 48.4936 75.6696 49.6594 75.6696 50.875V85.25C75.6696 86.4656 75.67 90 75.67 90C75.67 90 72.3018 90 71.0862 90H43.5862C42.3707 90 39 90 39 90C39 90 39.0029 86.4656 39.0029 85.25V50.875C39.0029 49.6594 39.4858 48.4936 40.3453 47.6341C41.2049 46.7746 42.3707 46.2917 43.5862 46.2917H51.2725ZM48.4583 50.875H43.5862V90H71.0862V50.875H66.2142C66.4021 51.6083 66.5029 52.376 66.5029 53.1667V55.4583C66.5029 56.0661 66.2615 56.649 65.8317 57.0788C65.4019 57.5086 64.819 57.75 64.2112 57.75H50.4612C49.8535 57.75 49.2706 57.5086 48.8408 57.0788C48.411 56.649 48.1696 56.0661 48.1696 55.4583V53.1667C48.1696 52.376 48.2704 51.6083 48.4583 50.875ZM48.1696 64.625C48.1696 64.0172 48.411 63.4343 48.8408 63.0045C49.2706 62.5748 49.8535 62.3333 50.4612 62.3333H64.2112C64.819 62.3333 65.4019 62.5748 65.8317 63.0045C66.2615 63.4343 66.5029 64.0172 66.5029 64.625C66.5029 65.2328 66.2615 65.8157 65.8317 66.2455C65.4019 66.6752 64.819 66.9167 64.2112 66.9167H50.4612C49.8535 66.9167 49.2706 66.6752 48.8408 66.2455C48.411 65.8157 48.1696 65.2328 48.1696 64.625ZM48.1696 73.7917C48.1696 73.1839 48.411 72.601 48.8408 72.1712C49.2706 71.7414 49.8535 71.5 50.4612 71.5H57.3362C57.944 71.5 58.5269 71.7414 58.9567 72.1712C59.3865 72.601 59.6279 73.1839 59.6279 73.7917C59.6279 74.3995 59.3865 74.9824 58.9567 75.4121C58.5269 75.8419 57.944 76.0833 57.3362 76.0833H50.4612C49.8535 76.0833 49.2706 75.8419 48.8408 75.4121C48.411 74.9824 48.1696 74.3995 48.1696 73.7917Z" fill="#E19524"/>
<defs>
<linearGradient id="paint0_linear_143_7" x1="45" y1="0" x2="45" y2="90" gradientUnits="userSpaceOnUse">
<stop stop-color="#FF9B05"/>
<stop offset="1" stop-color="#8E611E"/>
</linearGradient>
</defs>
</svg>
