<svg width="36" height="36" viewBox="0 0 36 36" fill="none" xmlns="http://www.w3.org/2000/svg">
<g clip-path="url(#clip0_3_79)">
<path d="M3 16H33V34H3V16Z" fill="#66757F"/>
<path d="M2 34H34C34.5304 34 35.0391 34.2107 35.4142 34.5858C35.7893 34.9609 36 35.4696 36 36H0C0 35.4696 0.210714 34.9609 0.585786 34.5858C0.960859 34.2107 1.46957 34 2 34Z" fill="#CCD6DD"/>
<path d="M18 23C17.2044 23 16.4413 23.3161 15.8787 23.8787C15.3161 24.4413 15 25.2044 15 26V32H21V26C21 25.2044 20.6839 24.4413 20.1213 23.8787C19.5587 23.3161 18.7956 23 18 23Z" fill="#292F33"/>
<path d="M3 21H7V32H3V21ZM9 21H13V32H9V21ZM29 21H33V32H29V21ZM23 21H27V32H23V21Z" fill="#CCD6DD"/>
<path d="M2 32H34V34H2V32Z" fill="#AAB8C2"/>
<path d="M36 11L18 0L0 11H36Z" fill="#66757F"/>
<path d="M18 2.4L2 12V16H34V12L18 2.4Z" fill="#CCD6DD"/>
<path d="M3 19H7V21H3V19ZM9 19H13V21H9V19ZM23 19H27V21H23V19ZM29 19H33V21H29V19Z" fill="#8899A6"/>
<path d="M1 12H35V17H1V12Z" fill="#CCD6DD"/>
<path d="M36 12C36 12.2652 35.8946 12.5196 35.7071 12.7071C35.5196 12.8946 35.2652 13 35 13H1C0.734784 13 0.48043 12.8946 0.292893 12.7071C0.105357 12.5196 0 12.2652 0 12V11C0 10.7348 0.105357 10.4804 0.292893 10.2929C0.48043 10.1054 0.734784 10 1 10H35C35.2652 10 35.5196 10.1054 35.7071 10.2929C35.8946 10.4804 36 10.7348 36 11V12ZM36 18C36 18.2652 35.8946 18.5196 35.7071 18.7071C35.5196 18.8946 35.2652 19 35 19H1C0.734784 19 0.48043 18.8946 0.292893 18.7071C0.105357 18.5196 0 18.2652 0 18V17C0 16.7348 0.105357 16.4804 0.292893 16.2929C0.48043 16.1054 0.734784 16 1 16H35C35.2652 16 35.5196 16.1054 35.7071 16.2929C35.8946 16.4804 36 16.7348 36 17V18Z" fill="#AAB8C2"/>
<path d="M13 32H23V34H13V32Z" fill="#AABBC6"/>
<path d="M11 34H25V36H11V34Z" fill="#CED4D8"/>
</g>
<defs>
<clipPath id="clip0_3_79">
<rect width="36" height="36" fill="white"/>
</clipPath>
</defs>
</svg>
