<svg width="1920" height="1080" viewBox="0 0 1920 1080" xmlns="http://www.w3.org/2000/svg"><path d="M1724,591.9999999999998C1719.1666666666667,725.7551728468876,1667.844071675282,819.1433666584107,1584.7627457812105,937.6920978619717C1501.6814198871389,1056.2408290655326,1367.59962656264,1241.1923389947995,1225.5120446355697,1303.292387221365C1083.4244627084995,1365.3924354479307,876.4497192882529,1356.0346285550336,732.2372542187895,1310.2923872213653C588.0247891493261,1264.550145887697,441.2767965885878,1150.8876704229158,360.23725421878953,1028.8389392193549C279.1977118489913,906.790208015794,244.00000000000003,707.2390796483505,246,578.0000000000001C247.99999999999997,448.7609203516497,288.86437851565773,377.9531925328132,372.2372542187893,253.40446132925234C455.6101299219209,128.85573012569148,610.6575018255251,-135.02123716950035,746.2372542187893,-169.29238722136517C881.8170066120535,-203.56353727323,1041.1281866513045,-2.9646803156050012,1185.7157685783748,47.77756101806335C1330.303350505445,98.5198023517317,1524.0487072109395,44.45732095032223,1613.7627457812105,135.16106078064496C1703.4767843514815,225.86480061096768,1728.8333333333333,458.24482715311194,1724,591.9999999999998C1719.1666666666667,725.7551728468876,1667.844071675282,819.1433666584107,1584.7627457812105,937.6920978619717" fill="#ffffff"/></svg>