<svg width="14" height="13" viewBox="0 0 14 13" fill="none" xmlns="http://www.w3.org/2000/svg">
<path fill-rule="evenodd" clip-rule="evenodd" d="M0 12.1536C0 11.9639 0.0670454 11.7821 0.186387 11.648C0.305728 11.514 0.467589 11.4386 0.636364 11.4386H13.3636C13.5324 11.4386 13.6943 11.514 13.8136 11.648C13.933 11.7821 14 11.9639 14 12.1536C14 12.3432 13.933 12.525 13.8136 12.6591C13.6943 12.7931 13.5324 12.8685 13.3636 12.8685H0.636364C0.467589 12.8685 0.305728 12.7931 0.186387 12.6591C0.0670454 12.525 0 12.3432 0 12.1536ZM0 6.43423C0 6.24463 0.0670454 6.06278 0.186387 5.92871C0.305728 5.79464 0.467589 5.71932 0.636364 5.71932H13.3636C13.5324 5.71932 13.6943 5.79464 13.8136 5.92871C13.933 6.06278 14 6.24463 14 6.43423C14 6.62384 13.933 6.80568 13.8136 6.93975C13.6943 7.07383 13.5324 7.14915 13.3636 7.14915H0.636364C0.467589 7.14915 0.305728 7.07383 0.186387 6.93975C0.0670454 6.80568 0 6.62384 0 6.43423ZM0 0.714915C0 0.525308 0.0670454 0.343466 0.186387 0.209394C0.305728 0.0753213 0.467589 0 0.636364 0H13.3636C13.5324 0 13.6943 0.0753213 13.8136 0.209394C13.933 0.343466 14 0.525308 14 0.714915C14 0.904522 13.933 1.08636 13.8136 1.22044C13.6943 1.35451 13.5324 1.42983 13.3636 1.42983H0.636364C0.467589 1.42983 0.305728 1.35451 0.186387 1.22044C0.0670454 1.08636 0 0.904522 0 0.714915Z" fill="#333333"/>
</svg>
