<svg width="276" height="37" viewBox="0 0 276 37" fill="none" xmlns="http://www.w3.org/2000/svg">
<path d="M267 33L275.5 13.5L260.5 18.5L256 23V17.5L249.5 19.5L248 24L245 20H239L242.5 23.5L226.5 19L209.5 20.5L186 33H267Z" fill="#111C84"/>
<path d="M186 33H14L58.5 15.5L118.5 16.5L136 28L142.5 16.5L186 33Z" fill="#111C84"/>
<path d="M256.232 22.6566L257.9 9.9726L264.426 12.8321L256.232 22.6566Z" fill="#111C84"/>
<path d="M247.744 23L243.744 17.5L249.596 16L247.744 23Z" fill="#111C84"/>
<path d="M206.819 4.07802L199.231 7.67775L199.822 8.2307L206.574 5.02797L215.335 13.4767L208.767 16.5925L209.013 16.8225L208.909 17.3586L214.054 14.918L214.88 15.7147L208.656 18.6673L208.478 19.5851L213.522 17.1924L214.425 18.0635L208.201 21.0161L208.023 21.9339L213.067 19.5411L213.97 20.4122L207.746 23.3649L207.568 24.2827L215.374 20.5793L213.892 19.1499L215.829 18.2307L214.347 16.8011L216.284 15.8819L214.879 14.5266L216.739 13.6439L206.819 4.07802ZM208.263 7.9918C206.666 8.53985 204.725 8.30888 203.498 7.4247L200.488 8.85256L208.102 15.9706L210.957 14.6164C210.145 13.5351 210.484 12.2221 211.79 11.393L208.263 7.9918ZM198.783 9.15615L193.255 11.8295L201.334 19.7357L201.438 19.6867C201.633 19.5938 201.908 19.462 202.237 19.3045C202.895 18.9898 203.766 18.5722 204.634 18.1556C205.884 17.5555 206.528 17.2457 207.128 16.9578L198.783 9.15615ZM206.652 10.7756C206.652 10.7756 206.652 10.7756 206.652 10.7756C206.87 10.8195 207.06 10.912 207.191 11.038C207.267 11.1114 207.321 11.1942 207.35 11.2816C207.378 11.3691 207.382 11.4595 207.359 11.5477C207.336 11.6359 207.288 11.7202 207.217 11.7958C207.146 11.8713 207.053 11.9367 206.945 11.9881C206.837 12.0395 206.714 12.0759 206.585 12.0953C206.456 12.1147 206.322 12.1167 206.192 12.1012C206.062 12.0857 205.937 12.0529 205.825 12.0048C205.713 11.9567 205.617 11.8942 205.541 11.8208C205.387 11.6727 205.327 11.4894 205.373 11.3112C205.419 11.1331 205.568 10.9747 205.786 10.8709C205.911 10.812 206.053 10.7728 206.203 10.7563C206.353 10.7398 206.506 10.7464 206.652 10.7756ZM191.018 11.574L182.793 15.476L184.198 16.8313L182.337 17.714L183.82 19.1436L181.882 20.0628L183.365 21.4923L181.427 22.4116L191.348 31.9775L199.175 28.2639L199.353 27.3464L191.593 31.0274L182.832 22.5786L183.944 22.0509L191.803 29.6286L199.63 25.9152L199.808 24.9977L192.048 28.6787L183.287 20.2299L184.399 19.7022L192.258 27.2799L200.085 23.5665L200.263 22.649L192.503 26.33L183.742 17.8812L184.777 17.3898L192.713 25.042L200.516 21.3399L200.593 20.9445L200.267 20.6251L192.958 24.0919L184.197 15.6432L191.592 12.1352L191.018 11.574ZM192.237 12.767L188.575 14.5039C189.387 15.585 189.048 16.898 187.742 17.7273L191.269 21.1285C192.866 20.5803 194.807 20.8113 196.034 21.6954L199.621 19.9938L192.237 12.767ZM207.446 18.3282C206.817 18.6302 206.263 18.8968 205.073 19.4678C204.274 19.8515 203.475 20.2347 202.676 20.6175C202.346 20.7751 202.07 20.9071 201.873 21.0007C201.866 21.0043 201.863 21.0053 201.856 21.0086L200.553 27.7356L206.169 24.9175L207.446 18.3282ZM193.453 17.0371C193.671 17.081 193.861 17.1735 193.991 17.2997C194.145 17.4478 194.205 17.6311 194.159 17.8092C194.113 17.9874 193.964 18.1458 193.746 18.2495C193.527 18.3533 193.256 18.394 192.993 18.3626C192.729 18.3313 192.495 18.2304 192.342 18.0823C192.188 17.9342 192.128 17.7509 192.174 17.5727C192.22 17.3946 192.368 17.2362 192.587 17.1324C192.711 17.0735 192.854 17.0343 193.004 17.0178C193.154 17.0013 193.307 17.0079 193.453 17.0371Z" fill="#111C84" fill-opacity="0.25"/>
<path d="M240.351 22.2144L228.5 18.5L233.5 15L240.351 22.2144Z" fill="#111C84"/>
</svg>
