<svg width="20" height="20" viewBox="0 0 20 20" fill="none" xmlns="http://www.w3.org/2000/svg">
<g clip-path="url(#clip0_3_108)">
<path d="M0.53375 2.40941L2.0525 3.92816C3.46491 2.07909 5.47776 0.780271 7.74455 0.255292C10.0113 -0.269687 12.3902 0.0120217 14.4717 1.05192C16.5532 2.09182 18.207 3.82485 19.1485 5.95267C20.09 8.08048 20.2602 10.4699 19.6298 12.7097C18.9994 14.9495 17.6079 16.8994 15.6949 18.2239C13.7818 19.5483 11.4668 20.1643 9.14852 19.966C6.8302 19.7676 4.65357 18.7672 2.99334 17.1369C1.33311 15.5067 0.293155 13.3487 0.0525005 11.0344C0.0269734 10.7869 0.100803 10.5394 0.257747 10.3464C0.414692 10.1534 0.641895 10.0306 0.889375 10.005C1.13686 9.97951 1.38434 10.0533 1.57739 10.2103C1.77043 10.3672 1.89322 10.5944 1.91875 10.8419C2.11582 12.7324 2.96946 14.494 4.33113 15.8201C5.69279 17.1463 7.47631 17.9531 9.37135 18.1001C11.2664 18.2472 13.153 17.7252 14.703 16.625C16.2529 15.5248 17.3681 13.916 17.8545 12.0785C18.3408 10.2411 18.1676 8.29123 17.3649 6.56829C16.5622 4.84535 15.1809 3.45836 13.4613 2.64863C11.7416 1.8389 9.79251 1.6577 7.95307 2.13654C6.11364 2.61539 4.50029 3.72397 3.39375 5.26941L5.09125 6.96691C5.13507 7.01062 5.16492 7.06635 5.17702 7.12704C5.18913 7.18773 5.18294 7.25065 5.15924 7.30783C5.13554 7.365 5.0954 7.41384 5.04391 7.44817C4.99242 7.4825 4.93189 7.50077 4.87 7.50066H0.3125C0.22962 7.50066 0.150135 7.46774 0.0915296 7.40913C0.0329245 7.35053 5.00407e-07 7.27104 5.00407e-07 7.18816V2.63066C-0.000110228 2.56877 0.0181575 2.50824 0.0524879 2.45675C0.0868182 2.40526 0.135665 2.36512 0.192836 2.34142C0.250007 2.31772 0.312927 2.31153 0.37362 2.32364C0.434312 2.33574 0.490044 2.36559 0.53375 2.40941ZM9.6875 5.00066C9.93614 5.00066 10.1746 5.09943 10.3504 5.27525C10.5262 5.45106 10.625 5.68952 10.625 5.93816V9.67816L13.16 10.6932C13.3834 10.7905 13.5601 10.9711 13.6526 11.1965C13.7452 11.422 13.7463 11.6746 13.6558 11.9008C13.5652 12.1271 13.3902 12.3092 13.1676 12.4086C12.9451 12.5079 12.6927 12.5168 12.4637 12.4332L9.33875 11.1832C9.16506 11.1134 9.0162 10.9932 8.91129 10.8382C8.80638 10.6832 8.75021 10.5003 8.75 10.3132V5.93816C8.75 5.68952 8.84877 5.45106 9.02459 5.27525C9.2004 5.09943 9.43886 5.00066 9.6875 5.00066Z" fill="#5355B4"/>
</g>
<defs>
<clipPath id="clip0_3_108">
<rect width="20" height="20" fill="white"/>
</clipPath>
</defs>
</svg>
