<svg width="19" height="19" viewBox="0 0 19 19" fill="none" xmlns="http://www.w3.org/2000/svg">
<circle cx="9.40625" cy="9.40625" r="9.40625" fill="white"/>
<path fill-rule="evenodd" clip-rule="evenodd" d="M18.8125 9.40625C18.8125 14.6013 14.6013 18.8125 9.40625 18.8125C4.21118 18.8125 0 14.6013 0 9.40625C0 4.21118 4.21118 0 9.40625 0C14.6013 0 18.8125 4.21118 18.8125 9.40625ZM12.9336 9.40625C12.9336 9.59335 12.8593 9.77279 12.727 9.90509C12.5947 10.0374 12.4152 10.1117 12.2281 10.1117H6.58438C6.39727 10.1117 6.21783 10.0374 6.08553 9.90509C5.95323 9.77279 5.87891 9.59335 5.87891 9.40625C5.87891 9.21915 5.95323 9.03971 6.08553 8.90741C6.21783 8.77511 6.39727 8.70078 6.58438 8.70078H12.2281C12.4152 8.70078 12.5947 8.77511 12.727 8.90741C12.8593 9.03971 12.9336 9.21915 12.9336 9.40625Z" fill="#F24E1E"/>
</svg>
