<svg width="19" height="19" viewBox="0 0 19 19" fill="none" xmlns="http://www.w3.org/2000/svg">
<circle cx="9.40625" cy="9.40625" r="9.40625" fill="white"/>
<path fill-rule="evenodd" clip-rule="evenodd" d="M0 9.40625C0 4.21143 4.21143 0 9.40625 0C14.6011 0 18.8125 4.21143 18.8125 9.40625C18.8125 14.6011 14.6011 18.8125 9.40625 18.8125C4.21143 18.8125 0 14.6011 0 9.40625ZM5.13068 11.1165C5.13068 10.8897 5.22077 10.6722 5.38114 10.5118C5.5415 10.3515 5.75901 10.2614 5.9858 10.2614H12.8267C13.0535 10.2614 13.271 10.3515 13.4314 10.5118C13.5917 10.6722 13.6818 10.8897 13.6818 11.1165C13.6818 11.3433 13.5917 11.5608 13.4314 11.7211C13.271 11.8815 13.0535 11.9716 12.8267 11.9716H5.9858C5.75901 11.9716 5.5415 11.8815 5.38114 11.7211C5.22077 11.5608 5.13068 11.3433 5.13068 11.1165ZM5.9858 6.84091C5.75901 6.84091 5.5415 6.931 5.38114 7.09137C5.22077 7.25173 5.13068 7.46923 5.13068 7.69602C5.13068 7.92281 5.22077 8.14031 5.38114 8.30068C5.5415 8.46104 5.75901 8.55114 5.9858 8.55114H12.8267C13.0535 8.55114 13.271 8.46104 13.4314 8.30068C13.5917 8.14031 13.6818 7.92281 13.6818 7.69602C13.6818 7.46923 13.5917 7.25173 13.4314 7.09137C13.271 6.931 13.0535 6.84091 12.8267 6.84091H5.9858Z" fill="#699BF7"/>
</svg>
